<?xml version="1.0" encoding="utf-8"?>
<!-- Generator: Adobe Illustrator 22.1.0, SVG Export Plug-In . SVG Version: 6.00 Build 0)  -->
<svg version="1.1" id="katman_1" xmlns="http://www.w3.org/2000/svg" xmlns:xlink="http://www.w3.org/1999/xlink" x="0px" y="0px"
	 viewBox="0 0 216.2 210.7" style="enable-background:new 0 0 216.2 210.7;" xml:space="preserve">
<style type="text/css">
	.st0{fill:#2E2D2D;}
	.st1{fill:#67B8B6;}
	.st2{fill:#91CBC7;}
	.st3{fill:#579696;}
	.st4{fill:#466C6E;}
	.st5{fill:#354F50;}
	.st6{fill:#21515E;}
</style>
<g>
	<g>
		<g>
			<path class="st0" d="M202.8,20.6c-1.7-3.8-4.4-5.9-9.1-4.9s-6.5,3.1-6.2,5.7s1.8,7.8,1.8,7.8s-15-3.7-34.6-10.2
				S114.6,1.1,114.6,1.1h-6.5l0,0h-6.4c0,0-20.5,11.3-40.1,17.9C42,25.5,27,29.2,27,29.2s1.5-5.2,1.8-7.8s-1.5-4.7-6.2-5.7
				s-7.4,1.1-9.1,4.9C11.7,24.4,0.1,65.4,0,72.2s2,11,3,12.6s3,5,3,5l15.8,26c-1.6,0.3-2.5,0.5-2.5,0.5l-0.2,12c0,0,3.2-0.8,8.8-2.4
				l7.8,12.8c0,0,11.7-10.6,16.5-18.1c0.8-1.2,1.4-2.4,1.9-3.5c2.9-1.1,5.9-2.2,9-3.5c24.5-9.8,44.4-23,44.9-23.3
				c0.5,0.4,20.5,13.5,44.9,23.3c3.1,1.2,6.1,2.4,9,3.5c0.5,1.1,1.2,2.2,1.9,3.5c4.8,7.6,16.5,18.1,16.5,18.1l7.8-12.8
				c5.5,1.6,8.8,2.4,8.8,2.4l-0.2-12.1c0,0-0.9-0.2-2.5-0.5l15.8-26c0,0,2-3.5,3-5s3.1-5.8,3-12.6S204.5,24.4,202.8,20.6z
				 M173.1,83.4c-1,1.5-2.1,3-3.3,4.7c-11.1-3.8-26.8-9.5-37.2-14c-0.8-0.4-1.6-0.7-2.3-1c3.2-2.6,6.4-5.4,9.3-8.2
				c0.2-0.2,0.3-0.3,0.5-0.4c12.7,6.1,25.7,11,36.1,14.5C174.9,80.8,173.8,82.4,173.1,83.4z M28.7,87.2c0.4,1.3-1.5,4-4,3.5
				c-1.1-0.2-2.9-2.6-4.9-5.7c1.1-0.3,3.4-0.9,6.8-1.9C27.7,85.1,28.6,86.7,28.7,87.2z M72,45.7c1.4-0.6,2.7-1.3,3.9-1.9
				c2.9,2.7,6,5.4,8.8,7.8c-4.1,1.9-8.3,3.7-12.3,5.2c-0.6,0.2-1.2,0.5-1.8,0.7c-5-4.5-7.8-7.6-7.8-7.6l0,0
				C65.9,48.6,68.9,47.2,72,45.7z M143.8,56.8c-4.3-1.6-8.9-3.6-13.2-5.6c2.8-2.4,5.9-5.1,8.8-7.8c1.6,0.8,3.2,1.5,4.8,2.3
				c2.7,1.3,5.4,2.5,8.2,3.7l-0.3,0.4c0,0-2.7,2.9-7.4,7.3C144.3,57,144,56.9,143.8,56.8z M129.1,47.7c-0.8,0.6-1.7,1.1-2.5,1.7
				c-5.4-2.6-10.2-5.1-13.6-6.9c1.9-1.4,4.7-3.4,8.6-6.3c0.5-0.4,1-0.8,1.5-1.1c3.8,2,8.3,4.4,13.6,7
				C134.5,43.9,132,45.8,129.1,47.7z M91.1,56.8c4.2,3.2,9.5,6.8,11.6,8.1c-3.1,1.7-7.6,4-13.8,6.8c-4.1-2.8-7.8-5.5-11-8.1
				c0.9-0.4,1.7-0.9,2.6-1.3C84.6,60.2,88.1,58.4,91.1,56.8z M107.4,61.6c-2.3-1.3-6.2-3.6-11.8-7.2c10.8-5.8,12.3-7.3,12.5-7.6
				c0.2,0.3,1.6,1.7,11.7,7.2C113.9,57.9,109.8,60.3,107.4,61.6z M107.4,39.5c-1.9-1.1-5.9-3.4-10.6-6.5c7.5-4.2,11-6.6,11.3-6.8
				c0.2,0.2,3.5,2.4,10.5,6.4C113.7,35.8,109.4,38.3,107.4,39.5z M90.1,28.5c-6-4.1-9.8-6.9-11-7.8c4.4-2.2,8.5-4.3,12.2-6.3l11,7.9
				C99.2,24,95,26.2,90.1,28.5z M93.2,36.2c4.3,3.2,7.3,5.4,9.2,6.7c-3.5,1.8-8.3,4.3-13.6,6.8c-1-0.7-2-1.4-3-2.1
				c-2.6-1.8-4.9-3.5-7.1-5.2c5.3-2.6,9.8-5,13.6-7C92.6,35.8,92.9,36,93.2,36.2z M61.7,50.4c1,1.4,3.2,4,6.9,7.9
				C54,63.7,39.7,68.1,33.9,69.8c-2.1-3.1-4.2-5.9-5.8-7.8C36.1,59.7,48.6,55.8,61.7,50.4z M75.2,64.9L75.2,64.9
				c3.1,2.9,6.5,5.9,9.8,8.6c-0.5,0.2-1,0.4-1.5,0.6c-10.4,4.6-26.1,10.2-37.2,14c-1.1-1.7-2.3-3.3-3.3-4.7
				c-0.8-1.1-1.8-2.7-3.1-4.5C50.2,75.5,62.9,70.8,75.2,64.9z M71.9,88.4c6.3-2.7,13.4-6.4,19.5-9.8c4.5,3.4,8.2,6.1,9.9,7.3
				c-16.1,8.4-25.8,12.8-35.5,16.3c-5.9,2.1-8.9,3.3-10.6,3.9c-0.3-1.3-0.8-2.7-1.4-4.2c-0.7-1.8-1.4-3.5-2.3-5.1
				C54.8,95.5,61.3,93,71.9,88.4z M107.4,82.6c-1.8-0.9-3.6-1.9-5.5-2.9c-2.1-1.1-4.2-2.3-6.2-3.5c7-4,12.1-7.2,12.4-7.4
				c0.3,0.2,5,3.1,11.7,7c-2.2,1.3-4.5,2.6-6.8,3.9C111,80.7,109.2,81.7,107.4,82.6z M112.7,64.5c2.4-1.6,7.4-4.9,11.2-7.9
				c0.1-0.1,0.2-0.1,0.3-0.2c3.2,1.7,7,3.6,11.5,6c0.6,0.3,1.2,0.6,1.8,0.9c-3.2,2.6-6.9,5.4-11,8.2
				C120.2,68.5,115.7,66.2,112.7,64.5z M187.5,87.2c0.2-0.5,1.1-2.1,2.2-4c3.4,1,5.7,1.6,6.8,1.9c-2,3.1-3.9,5.5-4.9,5.7
				C189,91.3,187.1,88.6,187.5,87.2z M182.3,69.7c-5.9-1.7-20.8-6.3-35.7-11.8c4-4.2,6.1-6.8,6.9-8c13.4,5.6,26.3,9.7,34.6,12
				C186.5,63.8,184.5,66.7,182.3,69.7z M192.7,41.7l2.9,10.4c-5.2-1.3-28.4-7.3-46.2-13.6c-1.2-0.4-2.4-0.9-3.6-1.3
				c0.1-0.1,0.2-0.3,0.4-0.4c3.8-4,6.1-6.7,7.4-8.2C173.3,36.9,192.7,41.7,192.7,41.7z M152.3,28L152.3,28c0,0-2.6,3.2-8.5,8.4
				c-5-2-9.9-4.1-14.5-6.2c5.2-4.3,9.4-8,9.4-8l-0.5-0.7l-2.2-0.9c0,0-3.8,2.9-10.8,7.7c-5.5-2.7-10.1-5.1-13.2-6.7
				c3.8-3,7.5-6.1,10.1-8.4c6.8,3.7,15.5,8.2,25,12.6C148.9,26.5,150.6,27.2,152.3,28z M108.1,5c0.2,0.1,4.3,2.6,10.9,6.2
				c-2.2,1.6-5.1,3.6-8.7,6.1c-0.8,0.6-1.7,1.1-2.5,1.7l-11.9-7C103.2,8,107.9,5.2,108.1,5z M76.2,22.2c0.8,0.7,4.9,4.3,9.7,8.3
				c-4.6,2.1-9.5,4.3-14.5,6.2c-4.9-4.3-7.6-7.3-8.6-8.3c2-0.9,4.1-1.8,6.1-2.7C71.5,24.5,73.9,23.4,76.2,22.2z M23.5,41.7
				c0,0,18.8-4.7,38.2-12.8c1.3,1.6,3.6,4.2,7,7.8c0.2,0.2,0.5,0.5,0.7,0.8c-0.9,0.3-1.7,0.6-2.6,0.9c-17.9,6.3-41,12.3-46.2,13.6
				L23.5,41.7z M13.9,57.2c1.7-1.4,4.4-2.4,5.5-2.8l-0.2,6.4c-1.1,0.9-1.8,2.1-1.9,3.5c-0.2,2.7,1.4,6,2.8,8.3c-0.6,0.1-1,0.1-1,0.1
				v11.4c-2.7-4.3-5.5-9.7-6.9-12.9C9.7,65.3,11.7,59,13.9,57.2z M157.8,105.4c-1.8-0.7-4.5-1.7-8.7-3.2c-1.2-0.5-2.4-0.9-3.6-1.4
				c-3.2-1.3-6-2.4-8.7-3.6c-6.4-2.8-13.7-6.4-23.3-11.4c1.8-1.2,5.7-4.1,10.4-7.7c6.4,3.5,13.7,7.4,20.3,10.3
				c10.6,4.6,17.1,7.1,20.3,8.3c-0.9,1.7-1.6,3.4-2.3,5.1c-0.6,1.7-1.1,3.2-1.5,4.6C159.8,106.1,158.8,105.7,157.8,105.4z M204,71.2
				c-1.4,3.2-4.2,8.6-6.9,12.9V72.7c0,0-0.4-0.1-1-0.1c1.4-2.4,3-5.7,2.8-8.3c-0.1-1.4-0.9-2.6-1.9-3.5l-0.2-6.4
				c1.1,0.4,3.8,1.4,5.5,2.8C204.5,59,206.5,65.3,204,71.2z"/>
		</g>
		<g>
			<g>
				<path class="st1" d="M103.6,64.5c0,0-7.5-4.8-12.7-8.9c-5.3-4.2-16.1-13.4-22.2-19.8s-8.4-9.6-8.4-9.6l2.3,0.8
					c0,0,6.8,8.3,23.2,19.7S110,61.9,110,61.9l-2.3,3L103.6,64.5z"/>
			</g>
			<g>
				<path class="st2" d="M152,48.9c0,0-15.6,17.3-39.1,29.8s-35.3,18.2-47.1,22.5s-12.3,4.6-12.3,4.6l-3.6,7.8l55.6-24.8l7-3.2
					c0,0,16-11,27.1-21.6S154,48.3,154,48.3h-1.5L152,48.9z"/>
			</g>
			<g>
				<path class="st1" d="M111.3,64.5c0,0,7.5-4.8,12.7-8.9c5.3-4.2,16.1-13.4,22.2-19.8c6.1-6.4,8.4-9.6,8.4-9.6l-2.3,0.8
					c0,0-6.8,8.3-23.2,19.7s-24.2,15.2-24.2,15.2l2.3,3L111.3,64.5z"/>
			</g>
			<g>
				<path class="st3" d="M138.8,21.1c0,0-9,8-17.1,14.1S110,43.7,110,43.7l-4-2.5l0.3-2c0,0,8-4.5,16.5-10.3s13.3-9.4,13.3-9.4
					l2.2,0.9L138.8,21.1z"/>
			</g>
			<g>
				<path class="st4" d="M126.2,8.6c0,0-9,8-17.1,14.1s-11.7,8.5-11.7,8.5l-4-2.5l0.3-2c0,0,8-4.5,16.5-10.3S123.5,7,123.5,7
					l2.2,0.9L126.2,8.6z"/>
			</g>
			<g>
				<path class="st1" d="M103.6,64.5c0,0-7.5-4.8-12.7-8.9c-5.3-4.2-16.1-13.4-22.2-19.8s-8.4-9.6-8.4-9.6l2.3,0.8
					c0,0,6.8,8.3,23.2,19.7S110,61.9,110,61.9l-2.3,3L103.6,64.5z"/>
			</g>
			<g>
				<path class="st2" d="M62.8,48.9c0,0,15.6,17.3,39.1,29.8s35.3,18.2,47.1,22.5s12.3,4.6,12.3,4.6l3.6,7.8l-55.6-24.8l-7-3.2
					c0,0-16-11-27.1-21.6S60.8,48.2,60.8,48.2h1.5L62.8,48.9z"/>
			</g>
			<g>
				<path class="st2" d="M62.8,48.9c0,0,15.6,17.3,39.1,29.8s35.3,18.2,47.1,22.5s12.3,4.6,12.3,4.6l3.6,7.8l-55.6-24.8l-7-3.2
					c0,0-16-11-27.1-21.6S60.8,48.2,60.8,48.2h1.5L62.8,48.9z"/>
			</g>
			<g>
				<path class="st4" d="M19.5,51.3l-0.4,12c0,0,27.4-6.5,52.9-18.6s36.1-19.5,36.1-19.5v-7c0,0-21,12.1-41.3,19.2
					S19.5,51.3,19.5,51.3z"/>
			</g>
			<g>
				<path class="st3" d="M19.1,71.7v12.5c0,0,32.5-8.3,61.3-22.9s27.7-15.6,27.7-15.6v-6.9c0,0-19.4,10.8-35.7,17
					s-33.2,11.4-39.1,13C27.5,70.6,19.1,71.7,19.1,71.7z"/>
			</g>
			<g>
				<path class="st1" d="M33.2,91.6c0,0,32.8-10.8,50.4-18.5s24.5-12.3,24.5-12.3v7c0,0-20.3,12.7-36.2,19.6s-22.7,9.2-22.7,9.2
					L33.2,91.6z"/>
			</g>
			<g>
				<path class="st2" d="M19.3,115.2c0,0,22.4-3.9,51.4-15.5s37.4-17.8,37.4-17.8v7.3c0,0-20.1,13.4-45,23.3s-44,14.7-44,14.7
					L19.3,115.2z"/>
			</g>
			<g>
				<path class="st4" d="M196.7,51.3l0.4,12c0,0-27.4-6.5-52.9-18.6s-36.1-19.5-36.1-19.5v-7c0,0,21,12.1,41.3,19.2
					S196.7,51.3,196.7,51.3z"/>
			</g>
			<g>
				<path class="st3" d="M197.1,71.7v12.5c0,0-32.5-8.3-61.3-22.9s-27.7-15.6-27.7-15.6v-6.9c0,0,19.4,10.8,35.7,17
					s33.2,11.4,39.1,13C188.7,70.6,197.1,71.7,197.1,71.7z"/>
			</g>
			<g>
				<path class="st1" d="M183,91.6c0,0-32.8-10.8-50.4-18.5s-24.5-12.3-24.5-12.3v7c0,0,20.3,12.7,36.2,19.6s22.7,9.2,22.7,9.2
					L183,91.6z"/>
			</g>
			<g>
				<path class="st2" d="M196.9,115.2c0,0-22.4-3.9-51.4-15.5S108.1,82,108.1,82v7.3c0,0,20.1,13.4,45,23.3s44,14.7,44,14.7
					L196.9,115.2z"/>
			</g>
			<g>
				<path class="st5" d="M210.2,88.8l-29.7,48.9c0,0-11.7-10.6-16.5-18.1s-4.3-11.7-1.7-18.7s7.3-13.4,10.8-18.4
					s13.8-21.2,16.9-23.3s8.6,0.2,8.9,4.2c0.4,4-3.5,9.3-4.4,11c-1,1.7-6.6,10.7-7,12s1.5,4,4,3.5s9.9-13.7,12.5-19.6
					s0.5-12.1-1.7-14c-2.2-1.8-6-3-6-3l-3.5-12.5c0,0-23.8-5.9-45.5-16S108.1,4,108.1,4V0h6.4c0,0,20.5,11.3,40.1,17.9
					s34.6,10.2,34.6,10.2s-1.5-5.2-1.8-7.8s1.5-4.7,6.2-5.7s7.4,1.1,9.1,4.9c1.8,3.9,13.4,44.9,13.5,51.7s-2,11-3,12.6
					C212.2,85.3,210.2,88.8,210.2,88.8z"/>
			</g>
			<g>
				<path class="st3" d="M76.1,21.1c0,0,9,8,17.1,14.1s11.7,8.5,11.7,8.5l4-2.5l-0.3-2c0,0-8-4.5-16.5-10.3s-13.3-9.4-13.3-9.4
					l-2.2,0.9L76.1,21.1z"/>
			</g>
			<g>
				<polygon class="st4" points="108.5,18.4 95.5,10.8 91,13.3 103.5,22.2 109.4,20.3 				"/>
			</g>
			<g>
				<path class="st3" d="M76.1,21.1c0,0,9,8,17.1,14.1s11.7,8.5,11.7,8.5l4-2.5l-0.3-2c0,0-8-4.5-16.5-10.3s-13.3-9.4-13.3-9.4
					l-2.2,0.9L76.1,21.1z"/>
			</g>
			<g>
				<path class="st5" d="M6,88.8l29.7,48.9c0,0,11.7-10.6,16.5-18.1s4.3-11.7,1.7-18.7c-2.6-7-7.3-13.4-10.8-18.4
					S29.3,61.3,26.2,59.2c-3.2-2.2-8.6,0.2-8.9,4.2c-0.4,4,3.5,9.3,4.4,11c1,1.7,6.6,10.7,7,12s-1.5,4-4,3.5s-9.9-13.7-12.5-19.6
					s-0.5-12.1,1.7-14c2.2-1.8,6-3,6-3l3.5-12.5c0,0,23.8-5.9,45.5-16S108.1,4,108.1,4V0h-6.4c0,0-20.5,11.3-40.1,17.9
					S26.9,28.2,26.9,28.2s1.5-5.2,1.8-7.8s-1.5-4.7-6.2-5.7s-7.4,1.1-9.1,4.9S0.1,64.4,0,71.2s2,11,3,12.6C4,85.3,6,88.8,6,88.8z"/>
			</g>
		</g>
	</g>
	<g>
		<g>
			<path class="st5" d="M48,169.6H31.9l-1.9,4.1c-0.6,1.4-0.9,2.5-0.9,3.4c0,1.2,0.5,2.1,1.5,2.6c0.6,0.3,2.1,0.6,4.5,0.7v1.2H19.9
				v-1.2c1.6-0.2,3-0.9,4-1.9c1.1-1,2.4-3.2,3.9-6.4l16.3-33.7h0.6l16.4,34.7c1.6,3.3,2.9,5.4,3.9,6.2c0.8,0.6,1.8,1,3.2,1.1v1.2
				h-22v-1.2h0.9c1.8,0,3-0.2,3.7-0.7c0.5-0.3,0.7-0.8,0.7-1.4c0-0.4-0.1-0.8-0.2-1.2c0-0.2-0.4-1-1-2.3L48,169.6z M46.8,167.3
				L40,152.7l-7,14.6H46.8z"/>
			<path class="st5" d="M107.3,139.3v11.5h-1.2c-0.7-2.6-1.5-4.5-2.4-5.7s-2.1-2.1-3.6-2.8c-0.9-0.4-2.3-0.6-4.5-0.6h-3.4v32.7
				c0,2.2,0.1,3.5,0.4,4.1c0.3,0.5,0.8,1,1.5,1.4s1.8,0.6,3.1,0.6h1.5v1.2H74.8v-1.2h1.5c1.3,0,2.4-0.2,3.2-0.7
				c0.6-0.3,1-0.8,1.4-1.5c0.2-0.5,0.4-1.8,0.4-3.9v-32.7H78c-3.1,0-5.3,0.6-6.7,1.8c-1.9,1.7-3.2,4.1-3.7,7.2h-1.3v-11.5
				L107.3,139.3L107.3,139.3z"/>
			<path class="st5" d="M142,138.3l0.4,14.1H141c-0.7-3.5-2.2-6.4-4.8-8.5c-2.5-2.2-5.3-3.2-8.3-3.2c-2.3,0-4.1,0.6-5.4,1.7
				c-1.3,1.1-2,2.4-2,3.9c0,0.9,0.2,1.8,0.7,2.5c0.7,1,1.7,1.9,3.1,2.9c1.1,0.7,3.5,1.9,7.3,3.7c5.3,2.4,8.9,4.7,10.8,6.9
				c1.8,2.2,2.8,4.6,2.8,7.4c0,3.5-1.5,6.6-4.5,9.1c-3,2.6-6.7,3.8-11.3,3.8c-1.4,0-2.8-0.1-4.1-0.4c-1.3-0.3-2.9-0.8-4.8-1.5
				c-1.1-0.4-2-0.6-2.7-0.6c-0.6,0-1.2,0.2-1.8,0.6c-0.7,0.4-1.2,1.1-1.6,1.9h-1.2v-16h1.2c1,4.5,2.9,7.9,5.7,10.3
				c2.8,2.4,5.8,3.5,9.1,3.5c2.5,0,4.5-0.6,6-1.9c1.5-1.3,2.2-2.7,2.2-4.4c0-1-0.3-2-0.9-2.9c-0.6-0.9-1.4-1.8-2.6-2.7
				c-1.2-0.8-3.2-1.9-6.2-3.3c-4.1-1.9-7.1-3.5-8.9-4.8c-1.8-1.3-3.2-2.8-4.2-4.5s-1.5-3.5-1.5-5.4c0-3.4,1.3-6.2,4-8.6
				s6-3.6,10.1-3.6c1.5,0,2.9,0.2,4.3,0.5c1.1,0.3,2.3,0.7,3.8,1.4s2.6,1,3.2,1c0.6,0,1-0.2,1.4-0.5c0.3-0.3,0.6-1.1,0.9-2.4H142z"
				/>
			<path class="st5" d="M176.5,169.6h-16.1l-1.9,4.1c-0.6,1.4-0.9,2.5-0.9,3.4c0,1.2,0.5,2.1,1.5,2.6c0.6,0.3,2.1,0.6,4.5,0.7v1.2
				h-15.2v-1.2c1.6-0.2,3-0.9,4-1.9c1.1-1,2.4-3.2,3.9-6.4l16.3-33.8h0.6l16.4,34.7c1.6,3.3,2.9,5.4,3.9,6.2c0.8,0.6,1.8,1,3.2,1.1
				v1.2h-22v-1.2h0.9c1.8,0,3-0.2,3.7-0.7c0.5-0.3,0.7-0.8,0.7-1.4c0-0.4-0.1-0.8-0.2-1.2c0-0.2-0.4-1-1-2.3L176.5,169.6z
				 M175.4,167.3l-6.8-14.6l-7,14.6H175.4z"/>
		</g>
		<g>
			<rect x="19.5" y="185" class="st3" width="177.3" height="2.8"/>
		</g>
		<g>
			<path class="st6" d="M44.8,193.9c-0.4,0-0.7-0.1-0.9-0.4s-0.4-0.6-0.4-1s0.1-0.7,0.4-1s0.6-0.4,0.9-0.4c0.4,0,0.7,0.1,0.9,0.4
				s0.4,0.6,0.4,1s-0.1,0.7-0.4,1S45.2,193.9,44.8,193.9z M43.5,195.1h2.6V207h-2.6V195.1z"/>
			<path class="st6" d="M56.4,207c-0.7-1.4-1.5-2.7-2.4-4s-1.8-2.6-2.7-3.8v7.8h-2.5v-11.9h2.1c0.4,0.4,0.8,0.8,1.2,1.4
				c0.4,0.5,0.9,1.1,1.3,1.8s0.9,1.3,1.4,1.9c0.5,0.7,0.9,1.3,1.3,1.9v-7h2.6V207L56.4,207L56.4,207z"/>
			<path class="st6" d="M64.4,204.9c0.4,0,0.7,0,0.9-0.1c0.2-0.1,0.4-0.1,0.6-0.3c0.1-0.1,0.2-0.2,0.3-0.4c0.1-0.1,0.1-0.3,0.1-0.5
				c0-0.4-0.2-0.7-0.5-1s-1-0.5-1.8-0.8c-0.4-0.1-0.8-0.3-1.1-0.5c-0.4-0.2-0.7-0.4-1-0.7s-0.5-0.6-0.7-1s-0.3-0.8-0.3-1.4
				c0-0.5,0.1-1,0.3-1.5c0.2-0.4,0.5-0.8,0.8-1.1c0.4-0.3,0.8-0.5,1.3-0.7s1.1-0.2,1.8-0.2c0.8,0,1.4,0.1,2,0.3s1,0.4,1.4,0.6
				l-0.7,2.1c-0.3-0.2-0.7-0.3-1.1-0.5s-0.9-0.2-1.4-0.2c-0.6,0-1.1,0.1-1.3,0.3c-0.3,0.2-0.4,0.4-0.4,0.8c0,0.2,0,0.4,0.1,0.5
				s0.2,0.3,0.4,0.4c0.2,0.1,0.4,0.2,0.6,0.3s0.5,0.2,0.8,0.3c0.6,0.2,1.1,0.5,1.6,0.7c0.4,0.2,0.8,0.5,1.1,0.8
				c0.3,0.3,0.5,0.6,0.7,1c0.1,0.4,0.2,0.9,0.2,1.5c0,1-0.3,1.7-0.8,2.3c-0.6,0.6-1.4,1-2.5,1.1c-0.1,0.2-0.2,0.4-0.2,0.5
				c0.4,0.2,0.6,0.4,0.7,0.7s0.2,0.5,0.2,0.8c0,0.5-0.2,1-0.6,1.3s-1,0.4-1.7,0.4c-0.2,0-0.5,0-0.7-0.1c-0.2,0-0.5-0.1-0.7-0.2
				l0.3-1.5c0.1,0,0.2,0.1,0.4,0.1c0.2,0.1,0.4,0.1,0.6,0.1c0.2,0,0.3,0,0.4-0.1s0.2-0.2,0.2-0.3s0-0.3-0.2-0.4s-0.3-0.2-0.6-0.3
				l-0.2-0.1c0-0.1,0.1-0.3,0.2-0.4c0.1-0.2,0.1-0.3,0.2-0.5c-0.9,0-1.6-0.2-2.1-0.4s-0.9-0.4-1.2-0.5l0.7-2.1
				c0.3,0.2,0.8,0.4,1.3,0.5C63,204.8,63.6,204.9,64.4,204.9z"/>
			<path class="st6" d="M78.6,207c-0.1-0.4-0.3-0.8-0.4-1.3c-0.1-0.4-0.3-0.9-0.4-1.3h-4.5c-0.1,0.4-0.3,0.9-0.4,1.3
				c-0.1,0.4-0.3,0.9-0.4,1.3h-2.7c0.4-1.3,0.8-2.5,1.2-3.6c0.4-1.1,0.8-2.1,1.1-3.1c0.4-1,0.7-1.9,1.1-2.7s0.7-1.7,1.1-2.5h2.4
				c0.4,0.8,0.7,1.7,1.1,2.5c0.4,0.9,0.7,1.8,1.1,2.7c0.4,1,0.8,2,1.1,3.1c0.4,1.1,0.8,2.3,1.2,3.6H78.6z M75.4,197.8
				c-0.1,0.2-0.1,0.4-0.3,0.7c-0.1,0.3-0.2,0.6-0.4,1c-0.1,0.4-0.3,0.8-0.5,1.3s-0.4,1-0.5,1.5h3.4c-0.2-0.5-0.3-1-0.5-1.5
				s-0.3-0.9-0.5-1.3c-0.1-0.4-0.3-0.7-0.4-1C75.6,198.2,75.5,197.9,75.4,197.8z"/>
			<path class="st6" d="M91.1,207c-0.1-0.4-0.3-0.8-0.4-1.3c-0.1-0.4-0.3-0.9-0.4-1.3h-4.5c-0.1,0.4-0.3,0.9-0.4,1.3
				c-0.1,0.4-0.3,0.9-0.4,1.3h-2.7c0.4-1.3,0.8-2.5,1.2-3.6c0.4-1.1,0.8-2.1,1.1-3.1c0.4-1,0.7-1.9,1.1-2.7s0.7-1.7,1.1-2.5h2.4
				c0.4,0.8,0.7,1.7,1.1,2.5c0.4,0.9,0.7,1.8,1.1,2.7c0.4,1,0.8,2,1.1,3.1c0.4,1.1,0.8,2.3,1.2,3.6H91.1z M88,197.8
				c-0.1,0.2-0.1,0.4-0.3,0.7c-0.1,0.3-0.2,0.6-0.4,1c-0.1,0.4-0.3,0.8-0.5,1.3s-0.4,1-0.5,1.5h3.3c-0.2-0.5-0.3-1-0.5-1.5
				s-0.3-0.9-0.5-1.3c-0.1-0.4-0.3-0.7-0.4-1C88.1,198.2,88,197.9,88,197.8z"/>
			<path class="st6" d="M102.5,195.1v2.3H99v9.6h-2.6v-9.6h-3.5v-2.3H102.5z"/>
			<path class="st6" d="M107.1,200.7h4.8v2.3h-4.8V200.7z"/>
			<path class="st6" d="M117.6,207v-11.9h7.7v2.2h-5.2v2.3h4.6v2.2h-4.6v2.9h5.5v2.2h-8V207z"/>
			<path class="st6" d="M130.7,195.1c0.2,0.4,0.4,0.8,0.7,1.4c0.3,0.6,0.5,1.2,0.8,1.8s0.6,1.3,0.8,2c0.3,0.7,0.5,1.3,0.8,1.9
				c0.2-0.6,0.5-1.2,0.8-1.9s0.6-1.3,0.8-2s0.6-1.2,0.8-1.8c0.3-0.6,0.5-1,0.7-1.4h2.4c0.1,0.8,0.2,1.7,0.3,2.7s0.2,2,0.2,3.1
				c0.1,1.1,0.1,2.1,0.2,3.2s0.1,2.1,0.2,3h-2.5c0-1.2-0.1-2.4-0.1-3.8c-0.1-1.4-0.1-2.7-0.2-4.1c-0.2,0.5-0.4,1-0.7,1.6
				c-0.2,0.6-0.5,1.2-0.7,1.8s-0.5,1.1-0.7,1.7c-0.2,0.5-0.4,1-0.6,1.4h-1.8c-0.2-0.4-0.3-0.8-0.6-1.4c-0.2-0.5-0.5-1.1-0.7-1.7
				c-0.2-0.6-0.5-1.2-0.7-1.8s-0.5-1.1-0.7-1.6c-0.1,1.4-0.2,2.8-0.2,4.1c-0.1,1.4-0.1,2.6-0.1,3.8h-2.5c0-0.9,0.1-1.9,0.2-3
				s0.1-2.1,0.2-3.2c0.1-1.1,0.2-2.1,0.2-3.1c0.1-1,0.2-1.9,0.3-2.7H130.7z"/>
			<path class="st6" d="M150.1,204.7v2.3h-7.7v-11.9h2.6v9.6L150.1,204.7L150.1,204.7z"/>
			<path class="st6" d="M160,207c-0.1-0.4-0.3-0.8-0.4-1.3c-0.1-0.4-0.3-0.9-0.4-1.3h-4.5c-0.1,0.4-0.3,0.9-0.4,1.3
				c-0.1,0.4-0.3,0.9-0.4,1.3h-2.8c0.4-1.3,0.8-2.5,1.2-3.6s0.8-2.1,1.1-3.1c0.4-1,0.7-1.9,1.1-2.7s0.7-1.7,1.1-2.5h2.4
				c0.4,0.8,0.7,1.7,1.1,2.5c0.4,0.9,0.7,1.8,1.1,2.7c0.4,1,0.8,2,1.1,3.1c0.4,1.1,0.8,2.3,1.2,3.6H160z M156.9,197.8
				c-0.1,0.2-0.1,0.4-0.3,0.7c-0.1,0.3-0.2,0.6-0.4,1c-0.1,0.4-0.3,0.8-0.5,1.3s-0.4,1-0.5,1.5h3.3c-0.2-0.5-0.3-1-0.5-1.5
				s-0.3-0.9-0.5-1.3c-0.1-0.4-0.3-0.7-0.4-1C157,198.2,156.9,197.9,156.9,197.8z"/>
			<path class="st6" d="M171,207c-0.2-0.4-0.5-0.8-0.8-1.3s-0.7-0.9-1-1.4c-0.4-0.5-0.7-0.9-1.1-1.3c-0.4-0.4-0.8-0.8-1.2-1.1v5
				h-2.6V195h2.6v4.5c0.7-0.7,1.3-1.5,2-2.3s1.3-1.5,1.9-2.2h3.1c-0.8,1-1.6,1.9-2.4,2.8s-1.6,1.8-2.5,2.7c0.9,0.8,1.8,1.7,2.7,2.8
				s1.7,2.3,2.5,3.6L171,207L171,207z"/>
		</g>
	</g>
</g>
</svg>
