<?xml version="1.0" encoding="utf-8"?>
<!-- Generator: Adobe Illustrator 22.1.0, SVG Export Plug-In . SVG Version: 6.00 Build 0)  -->
<svg version="1.1" id="katman_1" xmlns="http://www.w3.org/2000/svg" xmlns:xlink="http://www.w3.org/1999/xlink" x="0px" y="0px"
	 viewBox="0 0 229 92.2" style="enable-background:new 0 0 229 92.2;" xml:space="preserve">
<style type="text/css">
	.st0{fill:#172035;}
	.st1{fill:#2E9FDF;}
	.st2{fill:#2DA0DC;}
</style>
<g>
	<g>
		<path class="st0" d="M83.8,28.1h8.3c5.4,0,9,0.2,10.9,0.7s3.3,1.3,4.3,2.4s1.6,2.4,1.9,3.8c0.2,1.4,0.4,4.1,0.4,8.2v15
			c0,3.8-0.2,6.4-0.5,7.7c-0.4,1.3-1,2.3-1.9,3s-2,1.2-3.3,1.5s-3.3,0.4-6,0.4h-14V28.1H83.8z M94.9,35.4v28.2c1.6,0,2.6-0.3,3-1
			c0.4-0.6,0.6-2.4,0.6-5.3V40.7c0-1.9-0.1-3.2-0.2-3.7s-0.4-0.9-0.8-1.2C97,35.5,96.1,35.4,94.9,35.4z"/>
		<path class="st0" d="M141.3,53.1c0,4.3-0.1,7.3-0.3,9.1s-0.8,3.4-1.9,4.9c-1.1,1.5-2.5,2.6-4.3,3.4c-1.8,0.8-3.9,1.2-6.3,1.2
			c-2.3,0-4.4-0.4-6.2-1.1c-1.8-0.7-3.3-1.9-4.4-3.4c-1.1-1.5-1.8-3.1-2-4.9c-0.2-1.8-0.3-4.8-0.3-9.3v-7.3c0-4.3,0.1-7.3,0.3-9.1
			c0.2-1.8,0.8-3.4,1.9-4.9c1.1-1.5,2.5-2.6,4.3-3.4s3.9-1.2,6.3-1.2c2.3,0,4.4,0.4,6.2,1.1s3.3,1.9,4.4,3.4c1.1,1.5,1.8,3.1,2,4.9
			s0.3,4.9,0.3,9.3V53.1z M126.1,19.8v6.9h-6.9v-6.9H126.1z M130.2,39.1c0-2-0.1-3.3-0.3-3.8s-0.7-0.8-1.4-0.8c-0.6,0-1,0.2-1.3,0.7
			s-0.5,1.8-0.5,4v20c0,2.5,0.1,4,0.3,4.6s0.7,0.9,1.4,0.9c0.8,0,1.2-0.3,1.5-1c0.2-0.7,0.3-2.3,0.3-4.8V39.1z M137.7,19.8v6.9h-6.9
			v-6.9H137.7z"/>
		<path class="st0" d="M174.1,28.1l-5.7,42.8h-16.9l-6.4-42.8h11.7c1.4,11.8,2.3,21.8,2.9,29.9c0.6-8.3,1.2-15.6,1.8-22l0.8-8h11.8
			V28.1z"/>
		<path class="st0" d="M178.2,28.1h18.6v8.6h-7.4v8.1h7v8.1h-7v9.4h8.2v8.6h-19.3V28.1H178.2z"/>
	</g>
	<path class="st0" d="M228.9,46.7v-4.1c0-4-0.3-6.9-1-8.8s-2.1-3.5-4.2-4.7c-2.1-1.3-4.8-1.9-8.1-1.9c-2.4,0-4.6,0.4-6.4,1.2
		c-1.9,0.8-3.3,1.9-4.4,3.4c-1,1.4-1.7,2.9-1.9,4.5c-0.2,1.5-0.3,3.9-0.3,6.9v12.5c0,3.7,0.2,6.5,0.7,8.5s1.6,3.6,3.3,5s4,2.2,7,2.5
		l0,0h3.9c2.9-0.3,5.2-1.1,7-2.5c1.9-1.5,3.2-3.2,3.7-5s0.7-4.7,0.7-8.9v-1.7h-11.1V59c0,2.4-0.1,3.8-0.4,4.5c-0.3,0.6-0.8,1-1.6,1
		c-0.9,0-1.4-0.3-1.7-1c-0.2-0.6-0.4-2-0.4-4.1V39.5c0-2.2,0.1-3.6,0.4-4.2c0.2-0.7,0.8-1,1.7-1c0.8,0,1.3,0.3,1.6,0.8
		c0.2,0.5,0.4,1.9,0.4,4.1v7.4h11.1V46.7z"/>
	<rect x="83.8" y="72.9" class="st1" width="114.4" height="5.4"/>
	<rect x="208.4" y="72.9" class="st1" width="13.9" height="5.4"/>
	<g>
		<path class="st0" d="M92.9,91.8c-0.3,0.2-1.1,0.4-2.1,0.4c-2.5,0-4.1-1.6-4.1-4c0-2.6,1.8-4.2,4.3-4.2c1,0,1.7,0.2,2,0.4l-0.3,1.2
			c-0.4-0.2-0.9-0.3-1.6-0.3c-1.6,0-2.8,1-2.8,3c0,1.8,1,2.9,2.8,2.9c0.6,0,1.2-0.1,1.6-0.3L92.9,91.8z"/>
		<path class="st0" d="M106.4,87.9c0,2.7-1.6,4.2-3.8,4.2c-2.3,0-3.7-1.7-3.7-4.1c0-2.5,1.5-4.2,3.8-4.2
			C105,83.9,106.4,85.6,106.4,87.9z M100.4,88c0,1.6,0.8,2.9,2.2,2.9c1.4,0,2.2-1.3,2.2-3c0-1.5-0.7-2.9-2.2-2.9
			C101.2,85,100.4,86.4,100.4,88z"/>
		<path class="st0" d="M113.1,92v-8h1.7l2.1,3.4c0.5,0.9,1,1.8,1.4,2.7l0,0c-0.1-1.1-0.1-2.1-0.1-3.3V84h1.4v8h-1.5l-2.1-3.5
			c-0.5-0.9-1-1.9-1.4-2.8l0,0c0.1,1,0.1,2.1,0.1,3.4V92L113.1,92L113.1,92z"/>
		<path class="st0" d="M126.6,90.4c0.5,0.3,1.2,0.5,1.9,0.5c0.9,0,1.5-0.4,1.5-1.1c0-0.6-0.4-1-1.4-1.3c-1.3-0.5-2.2-1.2-2.2-2.3
			c0-1.3,1.1-2.3,2.8-2.3c0.9,0,1.5,0.2,1.9,0.4l-0.4,1.2c-0.3-0.2-0.8-0.4-1.6-0.4c-0.9,0-1.3,0.5-1.3,1c0,0.6,0.5,0.9,1.5,1.3
			c1.4,0.5,2.1,1.2,2.1,2.4c0,1.3-1,2.4-3,2.4c-0.8,0-1.7-0.2-2.2-0.5L126.6,90.4z"/>
		<path class="st0" d="M139.8,85.2h-2.3V84h6.1v1.2h-2.3V92h-1.5V85.2z"/>
		<path class="st0" d="M150,84.1c0.5-0.1,1.4-0.2,2.2-0.2c1.2,0,1.9,0.2,2.5,0.6c0.4,0.4,0.7,0.9,0.7,1.6c0,1-0.7,1.7-1.5,2l0,0
			c0.6,0.2,0.9,0.8,1.1,1.5c0.3,1,0.5,1.9,0.6,2.2h-1.5c-0.1-0.2-0.3-0.9-0.5-1.9s-0.6-1.4-1.4-1.4h-0.7v3.3H150L150,84.1L150,84.1z
			 M151.5,87.6h0.9c1,0,1.6-0.5,1.6-1.3c0-0.9-0.6-1.3-1.6-1.3c-0.5,0-0.8,0-0.9,0.1V87.6z"/>
		<path class="st0" d="M163.7,84v4.7c0,1.6,0.7,2.3,1.6,2.3c1.1,0,1.7-0.7,1.7-2.3V84h1.5v4.6c0,2.5-1.3,3.6-3.2,3.6s-3.1-1-3.1-3.6
			V84H163.7z"/>
		<path class="st0" d="M181.4,91.8c-0.3,0.2-1.1,0.4-2.1,0.4c-2.5,0-4.1-1.6-4.1-4c0-2.6,1.8-4.2,4.3-4.2c1,0,1.7,0.2,2,0.4
			l-0.3,1.2c-0.4-0.2-0.9-0.3-1.6-0.3c-1.6,0-2.8,1-2.8,3c0,1.8,1,2.9,2.8,2.9c0.6,0,1.2-0.1,1.6-0.3L181.4,91.8z"/>
		<path class="st0" d="M189.9,85.2h-2.3V84h6.1v1.2h-2.3V92h-1.5V85.2z"/>
		<path class="st0" d="M201.5,84v8H200v-8H201.5z"/>
		<path class="st0" d="M215.8,87.9c0,2.7-1.6,4.2-3.8,4.2c-2.3,0-3.7-1.7-3.7-4.1c0-2.5,1.5-4.2,3.8-4.2
			C214.4,83.9,215.8,85.6,215.8,87.9z M209.8,88c0,1.6,0.8,2.9,2.2,2.9s2.2-1.3,2.2-3c0-1.5-0.8-2.9-2.2-2.9S209.8,86.4,209.8,88z"
			/>
		<path class="st0" d="M222.5,92v-8h1.7l2.1,3.4c0.5,0.9,1,1.8,1.4,2.7l0,0c-0.1-1.1-0.1-2.1-0.1-3.3V84h1.4v8h-1.5l-2.1-3.5
			c-0.5-0.9-1-1.9-1.4-2.8l0,0c0.1,1,0.1,2.1,0.1,3.4V92L222.5,92L222.5,92z"/>
	</g>
	<polygon class="st0" points="14.2,29 23.4,0 78.1,18.1 69,46 62.3,34.8 65.6,23.7 51.9,19.7 49,14 43.1,16.6 29.7,12.2 26.1,24.3 	
		"/>
	<path class="st2" d="M6.1,50.2c0-0.2,3.7-14.9,3.7-14.9l37.3-15.7l21.7,35l-5,13.8L42,35.2L6.1,50.2z"/>
	<polygon class="st0" points="18.4,48.4 6.1,53.4 0,74.5 54.3,91.7 61.1,70.1 54.5,60.5 47.9,79.5 11.9,68.5 	"/>
</g>
</svg>
