<?xml version="1.0" encoding="utf-8"?>
<!-- Generator: Adobe Illustrator 24.1.0, SVG Export Plug-In . SVG Version: 6.00 Build 0)  -->
<svg version="1.1" id="Layer_1" xmlns="http://www.w3.org/2000/svg" xmlns:xlink="http://www.w3.org/1999/xlink" x="0px" y="0px"
	 viewBox="0 0 299 106" style="enable-background:new 0 0 299 106;" xml:space="preserve">
<style type="text/css">
	.st0{fill:#7A7C7E;}
	.st1{fill:#114045;}
</style>
<g>
	<path class="st0" d="M6.1,99.6c0,1.4,0.1,2.4,0.4,3c0.3,0.6,0.8,1.1,1.5,1.5c0.2,0.1,0.4,0.2,0.7,0.2c0.2,0.1,0.5,0.1,0.8,0.1h0.1
		c0.6,0.1,0.8,0.3,0.8,0.5c0,0.2-0.1,0.3-0.2,0.4c-0.2,0.1-0.4,0.1-0.7,0.1c-0.1,0-0.3,0-0.7,0c-1.2-0.1-2.4-0.1-3.5-0.1
		c-0.5,0-1.2,0-2,0.1c-0.8,0-1.4,0.1-1.7,0.1c-0.3,0-0.6,0-0.8-0.1c-0.2-0.1-0.3-0.2-0.3-0.4c0-0.2,0.1-0.3,0.3-0.4
		c0.2-0.1,0.4-0.1,0.8-0.1c0.1,0,0.2,0,0.4-0.1c0.6-0.1,1-0.3,1.3-0.5c0.6-0.3,1-0.8,1.2-1.3c0.2-0.6,0.3-1.6,0.3-2.9V78.7
		c-0.4-0.6-0.8-1.1-1.2-1.4c-0.4-0.3-1-0.6-1.6-0.8c-0.2,0-0.4-0.1-0.8-0.1c-0.1,0-0.1,0-0.1,0c0,0,0,0-0.1,0C0.3,76.2,0,76,0,75.8
		c0-0.1,0.1-0.3,0.3-0.3c0.2-0.1,0.5-0.1,0.9-0.1c0.1,0,0.6,0,1.3,0.1c0.7,0.1,1.4,0.1,2,0.1c0.1,0,0.4,0,0.7,0c0.3,0,0.5,0,0.7,0
		c0.1,0,0.2,0,0.5-0.1c0.3,0,0.5-0.1,0.7-0.1c0.3,0,0.6,0.1,0.8,0.2c0.3,0.1,0.5,0.4,0.7,0.6l18.3,22.9V80.7c0-1.6-0.3-2.8-0.9-3.5
		c-0.6-0.7-1.5-1.1-2.9-1.1c-0.1,0-0.2,0-0.3-0.1c-0.1-0.1-0.2-0.2-0.2-0.3c0-0.1,0.1-0.2,0.2-0.3c0.1-0.1,0.3-0.1,0.6-0.1
		c0.3,0,0.9,0,2,0.1c1,0.1,1.9,0.1,2.7,0.1c0.4,0,0.9,0,1.3,0c0.4,0,0.9,0,1.3-0.1c0,0,0.1,0,0.2,0c0.4,0,0.7-0.1,0.8-0.1
		c0.3,0,0.4,0,0.6,0.1c0.1,0.1,0.2,0.2,0.2,0.3c0,0.2-0.3,0.4-1,0.5l-0.1,0h-0.1c-0.7,0.1-1.2,0.3-1.6,0.4c-0.6,0.3-1,0.7-1.2,1.3
		c-0.2,0.5-0.3,1.5-0.3,2.8v23.9c0,0.5-0.1,0.9-0.2,1.1c-0.1,0.2-0.3,0.3-0.6,0.3c-0.2,0-0.5-0.1-0.7-0.2c-0.2-0.1-0.5-0.4-0.8-0.9
		L6.1,80.1V99.6z M37.6,95.6c0,3,0.5,5.3,1.6,7c1.1,1.6,2.6,2.4,4.6,2.4c2.1,0,3.7-0.8,4.8-2.4c1.1-1.6,1.6-4,1.6-7.2
		c0-3-0.6-5.3-1.7-6.9c-1.1-1.6-2.7-2.5-4.7-2.5c-1.9,0-3.4,0.9-4.5,2.6C38.2,90.3,37.6,92.6,37.6,95.6 M33.3,95.5
		c0-2.9,1-5.4,3.1-7.4c2.1-2,4.7-3,7.7-3c1.4,0,2.7,0.2,3.9,0.7c1.2,0.5,2.3,1.2,3.3,2.2c1,1,1.8,2.2,2.4,3.4
		c0.6,1.3,0.8,2.5,0.8,3.8c0,1.4-0.3,2.7-0.8,4c-0.5,1.3-1.3,2.5-2.3,3.5c-1,1.1-2.2,1.9-3.4,2.4c-1.2,0.5-2.6,0.8-4,0.8
		c-3.1,0-5.7-1-7.7-2.9C34.3,101,33.3,98.5,33.3,95.5 M62.2,89.7c0.6-1.3,1.5-2.4,2.6-3.1c1.1-0.8,2.4-1.1,3.8-1.1
		c1,0,1.8,0.2,2.5,0.7c0.6,0.4,0.9,1,0.9,1.7c0,0.6-0.1,1-0.4,1.3c-0.3,0.3-0.6,0.5-1.1,0.5c-0.4,0-0.6-0.1-0.9-0.2
		c-0.2-0.2-0.4-0.4-0.6-0.7c0-0.1-0.1-0.2-0.2-0.4c-0.4-0.8-1-1.2-1.8-1.2c-1.3,0-2.4,0.6-3.3,1.7c-0.8,1.1-1.3,2.6-1.3,4.4v8.4
		c0,0.9,0.1,1.5,0.2,1.8c0.1,0.3,0.4,0.5,0.9,0.7c0.2,0.1,0.4,0.2,0.6,0.2c0.2,0.1,0.4,0.1,0.7,0.1c0.4,0.1,0.6,0.1,0.7,0.2
		c0.1,0.1,0.2,0.2,0.2,0.4c0,0.1-0.1,0.2-0.2,0.3c-0.1,0.1-0.3,0.1-0.5,0.1c0,0-0.5,0-1.5-0.1c-1-0.1-2-0.1-3-0.1c-1,0-2,0-3,0.1
		c-1,0.1-1.5,0.1-1.5,0.1c-0.2,0-0.4,0-0.5-0.1c-0.1-0.1-0.2-0.2-0.2-0.3c0-0.1,0.1-0.3,0.2-0.3c0.1-0.1,0.4-0.2,0.7-0.3
		c0.2,0,0.5-0.1,0.7-0.1c0.2-0.1,0.4-0.1,0.6-0.2c0.4-0.2,0.7-0.4,0.9-0.7c0.2-0.3,0.2-0.9,0.2-1.8V91.2c0-1.1-0.1-2-0.4-2.5
		c-0.2-0.6-0.7-0.9-1.2-1.2c-0.2-0.1-0.3-0.1-0.5-0.1c-0.2,0-0.5,0-0.8,0c-0.4,0-0.7,0-0.8-0.1c-0.1-0.1-0.2-0.2-0.2-0.4
		c0-0.1,0.1-0.2,0.4-0.4c0.2-0.1,0.7-0.2,1.3-0.4c1.1-0.2,2.2-0.5,3.3-0.7c1.1-0.3,1.6-0.4,1.6-0.4c0.4,0,0.7,0.9,0.9,2.8
		C62.1,88.5,62.1,89.2,62.2,89.7 M73.7,87h-1.4c-0.3,0-0.5,0-0.6-0.1c-0.1-0.1-0.2-0.2-0.2-0.3c0-0.1,0.4-0.5,1.1-1
		c0.7-0.5,1.4-1.1,1.9-1.7c0.6-0.7,1.2-1.4,1.7-2.2c0.5-0.8,0.8-1.2,0.9-1.2c0.1,0,0.3,0,0.3,0.1c0.1,0.1,0.1,0.3,0.1,0.5v4.5h4.1
		c0.6,0,0.9,0,1.1,0.1c0.2,0.1,0.2,0.3,0.2,0.5c0,0.2-0.1,0.4-0.3,0.5c-0.2,0.1-0.6,0.2-1,0.2h-4v13.4c0,1.4,0.2,2.4,0.7,3.1
		c0.5,0.6,1.2,0.9,2.2,0.9c0.8,0,1.5-0.4,2.2-1.1c0.6-0.7,1-1.1,1.2-1.1c0.1,0,0.3,0.1,0.4,0.2c0.1,0.1,0.2,0.3,0.2,0.4
		c0,0.7-0.5,1.3-1.6,1.9c-1.1,0.6-2.3,0.9-3.8,0.9c-1.9,0-3.2-0.4-4-1.3c-0.8-0.8-1.2-2.3-1.2-4.3V87z M90.5,88.9
		c0.8-1.2,1.8-2.1,3-2.8c1.2-0.6,2.5-0.9,4.1-0.9c2.1,0,3.8,0.5,4.9,1.5c1.1,1,1.7,2.5,1.7,4.3v10.4c0,0.9,0.1,1.5,0.2,1.8
		c0.2,0.3,0.4,0.5,0.8,0.7c0.2,0.1,0.4,0.2,0.6,0.2c0.2,0.1,0.4,0.1,0.7,0.1c0.4,0.1,0.6,0.1,0.7,0.2c0.1,0.1,0.2,0.2,0.2,0.4
		c0,0.1-0.1,0.2-0.2,0.3c-0.1,0.1-0.3,0.1-0.5,0.1c0,0-0.6,0-1.5-0.1c-1-0.1-2-0.1-2.9-0.1c-1,0-1.9,0-2.9,0.1
		c-1,0.1-1.5,0.1-1.6,0.1c-0.2,0-0.4,0-0.5-0.1c-0.1-0.1-0.2-0.2-0.2-0.4c0-0.1,0.1-0.3,0.2-0.3c0.1-0.1,0.4-0.2,0.7-0.2
		c0.1,0,0.1,0,0.2,0c0.4-0.1,0.8-0.2,1-0.3c0.4-0.2,0.7-0.4,0.8-0.7c0.2-0.3,0.2-0.9,0.2-1.8V91.3c0-1.6-0.4-2.8-1-3.6
		c-0.7-0.8-1.8-1.2-3.2-1.2c-1.6,0-2.9,0.6-4,1.9c-1.1,1.2-1.7,2.8-1.7,4.6v8.4c0,0.9,0.1,1.5,0.2,1.8c0.2,0.3,0.4,0.5,0.9,0.7
		c0.2,0.1,0.4,0.2,0.6,0.2c0.2,0.1,0.4,0.1,0.7,0.1c0.4,0.1,0.6,0.1,0.7,0.2c0.1,0.1,0.2,0.2,0.2,0.4c0,0.1-0.1,0.2-0.2,0.3
		c-0.1,0.1-0.3,0.1-0.5,0.1c0,0-0.6,0-1.6-0.1c-1-0.1-2-0.1-2.9-0.1c-1,0-1.9,0-2.9,0.1c-1,0.1-1.5,0.1-1.5,0.1
		c-0.2,0-0.4,0-0.5-0.1c-0.1-0.1-0.2-0.2-0.2-0.4c0-0.1,0.1-0.3,0.2-0.3c0.1-0.1,0.4-0.2,0.7-0.2c0.1,0,0.1,0,0.2,0
		c0.5-0.1,0.8-0.2,1.1-0.3c0.4-0.2,0.7-0.4,0.8-0.7c0.2-0.3,0.2-0.9,0.2-1.8V78c0-0.9-0.1-1.4-0.2-1.7c-0.2-0.3-0.4-0.5-0.8-0.7
		c-0.2-0.1-0.4-0.1-0.6-0.2c-0.2-0.1-0.4-0.1-0.7-0.1c-0.4-0.1-0.6-0.1-0.8-0.2c-0.1-0.1-0.2-0.2-0.2-0.3c0-0.3,0.5-0.5,1.4-0.6
		c0.2,0,0.3-0.1,0.4-0.1c1.1-0.2,2.2-0.4,3.3-0.6c1.1-0.2,1.7-0.4,1.8-0.4c0.2,0,0.3,0.1,0.4,0.2c0.1,0.1,0.1,0.3,0.1,0.5V88.9z
		 M112.4,91.8h9.1c0.3,0,0.5-0.1,0.6-0.2c0.1-0.1,0.2-0.4,0.2-0.8c0-1.4-0.4-2.6-1.2-3.4c-0.8-0.8-1.9-1.3-3.2-1.3
		c-1.5,0-2.7,0.5-3.7,1.5C113.3,88.6,112.7,90,112.4,91.8 M112.2,93c-0.1,0.4-0.1,0.7-0.1,1.1c0,0.4,0,0.8,0,1.1
		c0,2.6,0.7,4.8,2,6.4c1.3,1.7,3.1,2.5,5.2,2.5c1,0,1.8-0.1,2.5-0.4c0.7-0.3,1.5-0.8,2.2-1.4c0.1-0.1,0.3-0.3,0.4-0.5
		c0.3-0.3,0.6-0.5,0.8-0.5c0.1,0,0.2,0,0.3,0.1c0.1,0.1,0.1,0.2,0.1,0.4c0,0.9-0.8,1.8-2.3,2.7c-1.5,0.9-3.4,1.4-5.4,1.4
		c-3,0-5.5-0.9-7.4-2.8c-1.9-1.9-2.9-4.3-2.9-7.1c0-1.4,0.3-2.7,0.8-4.1c0.5-1.3,1.2-2.5,2.2-3.5c1-1.1,2.2-2,3.4-2.5
		c1.2-0.5,2.6-0.8,4.2-0.8c2.3,0,4.3,0.7,5.9,2.1c1.6,1.4,2.4,3,2.4,4.9c0,0.4-0.1,0.7-0.2,0.8c-0.1,0.1-0.4,0.2-1,0.2H112.2z
		 M134.1,89.7c0.6-1.3,1.5-2.4,2.6-3.1c1.1-0.8,2.4-1.1,3.8-1.1c1,0,1.8,0.2,2.5,0.7c0.6,0.4,0.9,1,0.9,1.7c0,0.6-0.1,1-0.4,1.3
		c-0.3,0.3-0.6,0.5-1.1,0.5c-0.4,0-0.6-0.1-0.9-0.2c-0.2-0.2-0.4-0.4-0.6-0.7c0-0.1-0.1-0.2-0.2-0.4c-0.4-0.8-1-1.2-1.8-1.2
		c-1.3,0-2.4,0.6-3.3,1.7c-0.8,1.1-1.3,2.6-1.3,4.4v8.4c0,0.9,0.1,1.5,0.2,1.8c0.1,0.3,0.4,0.5,0.9,0.7c0.2,0.1,0.4,0.2,0.6,0.2
		c0.2,0.1,0.4,0.1,0.7,0.1c0.4,0.1,0.6,0.1,0.7,0.2c0.1,0.1,0.2,0.2,0.2,0.4c0,0.1-0.1,0.2-0.2,0.3c-0.1,0.1-0.3,0.1-0.5,0.1
		c0,0-0.5,0-1.5-0.1c-1-0.1-2-0.1-3-0.1c-1,0-2,0-3,0.1c-1,0.1-1.5,0.1-1.5,0.1c-0.2,0-0.4,0-0.5-0.1c-0.1-0.1-0.2-0.2-0.2-0.3
		c0-0.1,0.1-0.3,0.2-0.3c0.1-0.1,0.4-0.2,0.7-0.3c0.2,0,0.5-0.1,0.7-0.1c0.2-0.1,0.4-0.1,0.6-0.2c0.4-0.2,0.7-0.4,0.9-0.7
		c0.2-0.3,0.2-0.9,0.2-1.8V91.2c0-1.1-0.1-2-0.4-2.5c-0.2-0.6-0.7-0.9-1.2-1.2c-0.2-0.1-0.3-0.1-0.5-0.1c-0.2,0-0.5,0-0.8,0
		c-0.4,0-0.7,0-0.8-0.1c-0.1-0.1-0.2-0.2-0.2-0.4c0-0.1,0.1-0.2,0.4-0.4c0.2-0.1,0.7-0.2,1.3-0.4c1.1-0.2,2.2-0.5,3.3-0.7
		c1-0.3,1.6-0.4,1.6-0.4c0.4,0,0.7,0.9,0.9,2.8C133.9,88.5,134,89.2,134.1,89.7 M146.7,101.4V90.7c0-1-0.1-1.7-0.2-2.1
		c-0.2-0.4-0.4-0.8-0.8-1c-0.2-0.1-0.3-0.1-0.5-0.2c-0.2,0-0.4-0.1-0.7-0.1c0,0-0.1,0-0.1,0c-0.6-0.1-0.8-0.2-0.8-0.4
		c0-0.2,0.5-0.4,1.4-0.6c0.1,0,0.2,0,0.3-0.1c0.9-0.2,1.7-0.4,2.7-0.7c0.9-0.3,1.4-0.5,1.5-0.5c0.5,0,0.8,1,0.9,2.9
		c0,0.6,0.1,1.1,0.1,1.5c0.9-1.4,1.9-2.5,3.2-3.2c1.2-0.7,2.6-1.1,4.2-1.1c2.1,0,3.8,0.5,4.9,1.5c1.1,1,1.7,2.5,1.7,4.4v10.4
		c0,0.9,0.1,1.5,0.2,1.8c0.2,0.3,0.4,0.5,0.8,0.7c0.2,0.1,0.4,0.2,0.6,0.2c0.2,0.1,0.4,0.1,0.7,0.1c0.4,0.1,0.6,0.1,0.7,0.2
		c0.1,0.1,0.2,0.2,0.2,0.4c0,0.1-0.1,0.2-0.2,0.3c-0.1,0.1-0.3,0.1-0.5,0.1c0,0-0.6,0-1.6-0.1c-1-0.1-2-0.1-2.9-0.1
		c-1,0-1.9,0-2.9,0.1c-1,0.1-1.5,0.1-1.5,0.1c-0.2,0-0.4,0-0.5-0.1c-0.1-0.1-0.2-0.2-0.2-0.4c0-0.1,0.1-0.3,0.2-0.3
		c0.1-0.1,0.4-0.2,0.7-0.2c0,0,0.1,0,0.2,0c0.5-0.1,0.8-0.2,1-0.3c0.4-0.2,0.7-0.4,0.9-0.7c0.1-0.3,0.2-0.9,0.2-1.8V91.3
		c0-1.6-0.4-2.8-1.1-3.6c-0.7-0.8-1.7-1.2-3.1-1.2c-1.6,0-2.9,0.6-4,1.9c-1.1,1.2-1.6,2.8-1.6,4.6v8.4c0,0.9,0.1,1.5,0.2,1.8
		c0.1,0.3,0.4,0.5,0.9,0.7c0.2,0.1,0.4,0.2,0.6,0.2c0.2,0.1,0.4,0.1,0.7,0.1c0.4,0.1,0.6,0.1,0.7,0.2c0.1,0.1,0.2,0.2,0.2,0.4
		c0,0.1-0.1,0.2-0.2,0.3c-0.1,0.1-0.3,0.1-0.5,0.1c0,0-0.6,0-1.5-0.1c-1-0.1-2-0.1-2.9-0.1c-0.9,0-1.9,0-2.9,0.1
		c-1,0.1-1.5,0.1-1.6,0.1c-0.2,0-0.4,0-0.5-0.1c-0.1-0.1-0.2-0.2-0.2-0.4c0-0.1,0.1-0.3,0.2-0.3c0.1-0.1,0.4-0.2,0.7-0.2
		c0,0,0.1,0,0.2,0c0.5-0.1,0.8-0.2,1.1-0.3c0.4-0.2,0.7-0.4,0.9-0.7C146.7,103,146.7,102.4,146.7,101.4"/>
	<path class="st1" d="M183.3,98.8c0,2.1,0.5,3.6,1.4,4.3c0.9,0.7,2.8,1.1,5.6,1.1c2.1,0,3.8-0.2,5-0.6c1.2-0.4,2.2-1.1,2.9-2
		c0.4-0.6,0.8-1.4,1-2.4c0.2-1,0.5-1.5,0.8-1.5c0.1,0,0.2,0,0.3,0.1c0.1,0.1,0.1,0.3,0.1,0.7l-0.1,6c0,0.5-0.1,0.8-0.2,0.9
		c-0.1,0.1-0.4,0.2-0.8,0.2c-0.2,0-0.6,0-1.4,0c-4.2-0.2-8.4-0.3-12.5-0.3c-3.4,0-6.6,0.1-9.6,0.2c-0.4,0-0.6,0-0.7,0
		c-0.3,0-0.5,0-0.6-0.1c-0.1-0.1-0.2-0.2-0.2-0.4c0-0.3,0.4-0.5,1.1-0.6c0.1,0,0.1,0,0.1,0c0.4,0,0.7-0.1,0.9-0.1
		c0.3-0.1,0.5-0.2,0.7-0.3c0.5-0.3,0.9-0.6,1.1-1.1c0.2-0.5,0.3-1.3,0.3-2.5V80.2c0-1.1-0.1-2-0.3-2.4c-0.2-0.5-0.6-0.8-1.1-1.1
		c-0.2-0.1-0.5-0.2-0.8-0.2c-0.3-0.1-0.6-0.1-0.9-0.1c0,0-0.1,0-0.1,0c-0.7-0.1-1.1-0.2-1.1-0.5c0-0.1,0.1-0.2,0.2-0.3
		c0.1-0.1,0.3-0.1,0.6-0.1c0.1,0,0.4,0,0.7,0c1.8,0.1,3.5,0.2,5.1,0.2c1.8,0,3.5-0.1,5.3-0.2c0.3,0,0.5,0,0.5,0c0.2,0,0.4,0,0.6,0.1
		c0.1,0.1,0.2,0.2,0.2,0.3c0,0.2-0.3,0.4-0.9,0.5c-0.1,0-0.1,0-0.2,0c-0.2,0-0.4,0-0.7,0.1c-0.2,0-0.5,0.1-0.8,0.2
		c-0.7,0.2-1.1,0.5-1.4,1.1c-0.3,0.5-0.4,1.4-0.4,2.6V98.8z M208.9,94.4l-2,4.9c-0.2,0.5-0.3,0.9-0.4,1.4c-0.1,0.4-0.1,0.8-0.1,1.2
		c0,0.6,0.1,1,0.3,1.4c0.2,0.4,0.6,0.6,1.1,0.8c0.3,0.1,0.5,0.2,0.6,0.2c0.2,0,0.3,0.1,0.4,0.1c0.4,0.1,0.6,0.1,0.8,0.2
		c0.1,0.1,0.2,0.2,0.2,0.4c0,0.1-0.1,0.2-0.2,0.3c-0.2,0.1-0.4,0.1-0.6,0.1c-0.1,0-0.6,0-1.5-0.1c-0.9-0.1-1.8-0.1-2.6-0.1
		c-0.6,0-1.4,0-2.2,0.1c-0.8,0.1-1.4,0.1-1.5,0.1c-0.4,0-0.6,0-0.8-0.1c-0.2-0.1-0.3-0.2-0.3-0.4c0-0.1,0.1-0.2,0.2-0.3
		c0.1-0.1,0.4-0.1,0.7-0.2c0.4-0.1,0.7-0.2,1-0.3c0.3-0.1,0.5-0.2,0.8-0.3c0.5-0.2,1-0.7,1.4-1.4c0.5-0.7,1-1.7,1.6-3.2l10-23.7
		c0.1-0.3,0.2-0.5,0.4-0.7c0.1-0.1,0.3-0.2,0.4-0.2c0.2,0,0.3,0.1,0.4,0.2c0.1,0.1,0.3,0.4,0.4,0.7l9.9,24.9
		c0.4,1.1,0.9,1.9,1.3,2.4c0.4,0.5,0.9,0.9,1.4,1.1c0.2,0.1,0.4,0.2,0.7,0.2c0.2,0.1,0.5,0.1,0.8,0.1c0.4,0.1,0.7,0.1,0.8,0.2
		c0.1,0.1,0.2,0.2,0.2,0.4c0,0.1-0.1,0.2-0.2,0.3c-0.2,0.1-0.4,0.1-0.7,0.1c-0.3,0-1.2,0-2.4-0.1c-1.3-0.1-2.4-0.1-3.3-0.1
		c-0.6,0-1.5,0-2.7,0.1c-1.2,0.1-2.1,0.1-2.7,0.1c-0.4,0-0.7,0-0.9-0.1c-0.2-0.1-0.3-0.2-0.3-0.4c0-0.1,0.1-0.2,0.3-0.3
		c0.2-0.1,0.5-0.2,1.1-0.3c0.9-0.1,1.5-0.3,1.9-0.5c0.4-0.3,0.6-0.6,0.6-1.1c0-0.3-0.1-0.7-0.2-1.3c-0.1-0.5-0.3-1.1-0.5-1.6
		l-2.1-5.4H208.9z M209.4,93.1h10.4l-5-12.9L209.4,93.1z M238.7,99.6c0,1.4,0.1,2.4,0.4,3c0.3,0.6,0.8,1.1,1.5,1.5
		c0.2,0.1,0.4,0.2,0.7,0.2c0.2,0.1,0.5,0.1,0.8,0.1h0.1c0.6,0.1,0.8,0.3,0.8,0.5c0,0.2-0.1,0.3-0.2,0.4c-0.2,0.1-0.4,0.1-0.7,0.1
		c-0.1,0-0.3,0-0.7,0c-1.2-0.1-2.4-0.1-3.5-0.1c-0.5,0-1.2,0-2,0.1c-0.8,0-1.4,0.1-1.7,0.1c-0.3,0-0.6,0-0.8-0.1
		c-0.2-0.1-0.3-0.2-0.3-0.4c0-0.2,0.1-0.3,0.3-0.4c0.2-0.1,0.4-0.1,0.8-0.1c0.1,0,0.2,0,0.4-0.1c0.6-0.1,1-0.3,1.3-0.5
		c0.6-0.3,1-0.8,1.2-1.3c0.2-0.6,0.3-1.6,0.3-2.9V78.7c-0.4-0.6-0.8-1.1-1.2-1.4c-0.4-0.3-1-0.6-1.6-0.8c-0.2,0-0.4-0.1-0.8-0.2
		c-0.1,0-0.1,0-0.1,0c0,0,0,0-0.1,0c-0.6-0.1-0.9-0.3-0.9-0.5c0-0.1,0.1-0.3,0.3-0.3c0.2-0.1,0.5-0.1,0.9-0.1c0.1,0,0.6,0,1.3,0.1
		c0.7,0.1,1.4,0.1,2,0.1c0.1,0,0.4,0,0.7,0c0.3,0,0.5,0,0.7,0c0.1,0,0.2,0,0.5-0.1c0.3,0,0.5-0.1,0.7-0.1c0.3,0,0.6,0.1,0.8,0.2
		c0.3,0.1,0.5,0.4,0.7,0.6l18.3,22.9V80.7c0-1.6-0.3-2.8-0.9-3.5c-0.6-0.7-1.5-1-2.9-1c-0.1,0-0.2,0-0.3-0.1
		c-0.1-0.1-0.2-0.2-0.2-0.3c0-0.1,0.1-0.2,0.2-0.3c0.1-0.1,0.3-0.1,0.6-0.1c0.3,0,0.9,0,2,0.1c1,0.1,1.9,0.1,2.7,0.1
		c0.4,0,0.9,0,1.3,0c0.4,0,0.9,0,1.3-0.1c0,0,0.1,0,0.2,0c0.4,0,0.7-0.1,0.9-0.1c0.3,0,0.4,0,0.6,0.1c0.1,0.1,0.2,0.2,0.2,0.3
		c0,0.2-0.3,0.4-1,0.5l-0.1,0h-0.1c-0.7,0.1-1.2,0.3-1.6,0.4c-0.6,0.3-1,0.7-1.2,1.3c-0.2,0.5-0.3,1.5-0.3,2.8v23.9
		c0,0.5-0.1,0.9-0.2,1.1c-0.1,0.2-0.3,0.3-0.6,0.3c-0.2,0-0.5-0.1-0.7-0.2c-0.2-0.1-0.5-0.4-0.8-0.8l-20-24.8V99.6z M273.4,80
		c0-1.1-0.1-2-0.3-2.5c-0.2-0.5-0.6-0.9-1.1-1.1c-0.4-0.2-0.9-0.3-1.7-0.3h0c0,0-0.1,0-0.1,0c-0.7-0.1-1-0.2-1-0.4
		c0-0.1,0.1-0.3,0.2-0.3c0.1-0.1,0.3-0.1,0.6-0.1c0.1,0,0.4,0,0.7,0c1.8,0.1,3.5,0.2,5.1,0.2c0.7,0,1.7,0,3.1-0.1
		c1.4-0.1,2.4-0.1,3.1-0.1c5.4,0,9.5,1.4,12.6,4.1c3,2.7,4.5,6.5,4.5,11.4c0,4.9-1.4,8.6-4.1,11.1c-2.7,2.5-6.7,3.7-12.1,3.7
		c-1.2,0-2.6,0-4.3-0.1c-1.7-0.1-2.9-0.1-3.4-0.1c-1.6,0-3.1,0.1-4.7,0.2c-0.3,0-0.5,0-0.5,0c-0.3,0-0.5,0-0.6-0.1
		c-0.1-0.1-0.2-0.2-0.2-0.3c0-0.3,0.4-0.5,1.1-0.6c0.1,0,0.1,0,0.1,0c0.4,0,0.7-0.1,0.9-0.1c0.3-0.1,0.5-0.2,0.7-0.3
		c0.6-0.3,0.9-0.7,1.2-1.2c0.2-0.5,0.3-1.3,0.3-2.5V80z M278.1,98.1c0,2.3,0.4,3.9,1.2,4.8c0.8,0.9,2.2,1.3,4.2,1.3
		c3.5,0,6-1,7.7-3.1c1.6-2,2.4-5.3,2.4-9.8c0-5.3-1-9.1-2.9-11.6c-2-2.4-5.1-3.6-9.3-3.6c-1.4,0-2.2,0.2-2.6,0.5
		c-0.4,0.3-0.5,1-0.5,2V98.1z"/>
	<path class="st1" d="M156.5,0c0.2,0.4,0.4,0.8,0.6,1.2c-1,1.2-2.6,1.7-3.5,3c-0.5,0.8-1.1,1.5-1.7,2.3c-0.5,1.3-0.7,2.6-1.2,3.9
		c-1.9,0.8-4.1,1.1-6,1.9c0,0.3,0,0.7,0.1,1c-0.4,0.6-0.9,1.1-1.1,1.8c-0.2,0.8-0.3,1.7-0.4,2.5c-0.9,0-2.3-0.5-2.9,0.5
		c-0.4,0.6-1,1.3-0.9,2c0.6,1.2,1.8,2.2,1.8,3.6c-0.1,1.2,0,2.7-1,3.6c-0.7,0.7-1.3,1.6-1.4,2.6c-0.2,0.8,0.5,1.4,0.5,2.2
		c0,0.5-0.1,1-0.1,1.5c-0.8,0.7-1.8,1.4-1.9,2.5c-0.2,1.3-0.3,2.6-0.6,3.9c-0.3,1.3,1.2,2.4,0.5,3.6c-0.3,0.6-0.7,1-1,1.5
		c0-0.7,0.1-1.4,0.1-2c-0.3-0.6-1-0.3-1.6-0.4c-0.4-1.8-0.1-3.8-0.8-5.6c-0.4-1-0.3-2-0.7-3c-0.6-1.5-0.5-3.5,0.8-4.7
		c0-1-0.1-2-0.5-2.9c-0.7-0.3-1.5-0.6-2-1.2c-0.1-1,0.4-2.1-0.1-3c-0.7-0.9-1.8-1.4-2.7-1.8c-0.1-0.7,0-1.5-0.5-2
		c-0.6-0.6-1.1-1.4-1.6-2.1c-0.6-0.4-1.4,0.1-2.1-0.2c-0.7-0.8-1.2-1.7-1.5-2.7c-0.3-0.7,0.5-1.3,0.7-1.9c-0.2-1.4-1.2-2.8-2.8-2.8
		c-0.5-1.3,0.1-2.6,0.4-3.9c-1.2,0.5-2.2,1.4-3.1,2.3c-0.5,0.5-1.3,0.4-1.9,0.7c-0.8,0.8-1.3,1.7-2.1,2.4c-0.1,1.2-0.2,2.5-0.7,3.6
		c-0.4,0.8-1.7,0.4-2.1,1.3c-0.6,0.7-0.7,1.7-0.8,2.6c-0.4,0.6-1,1.1-1.6,1.5c-0.8,0.4-1.8,0.2-2.5,0.8c-0.9,0.9-1.5,2.1-1.4,3.3
		c-0.1,0.6,0.2,1.4-0.5,1.8c-1.2,0.7-2.5,1.2-3.3,2.4c-0.5,1,0.2,2.1,0.1,3.2c-0.4,1.2-1.4,1.9-2.3,2.6c-0.2,0.7,0,1.5,0.1,2.2
		c-1.3,1.3-2.1,3-2.8,4.7c-0.3,0.8-1,1.3-1.5,1.9c-0.1,0.7,0.1,1.4,0.2,2c-0.5-0.6-0.8-1.3-1.1-2c0.2-0.7,0.5-1.4,0.4-2.1
		c-0.5-0.7-1.3-1.2-1.4-2.1c0.3-0.6,1-1,1.1-1.7c0.3-1.2,1.2-2.1,1.2-3.3c0.1-1.4,0.2-2.8,0.2-4.3c-0.4-0.6-1.4-0.5-1.8-1.1
		c-0.6-0.6-0.4-1.6-0.1-2.4c0.7-0.9,1.6-1.7,2.4-2.5c-0.4-1.7-2.4-2-3-3.6c0.3-0.7,0.9-1.4,0.7-2.3c-0.3-1-0.5-2.1-0.5-3.1
		c0.5-0.4,1-0.8,1.5-1.1c-0.5-1-1.4-1.9-1.7-3c0.3-0.1,0.6-0.2,0.9-0.3c1.1,1,1.8,2.3,3,3.1c0.9,0.7,1.8-0.3,2.6-0.7
		c0.9,0.7,2,1.4,2.1,2.6c0.1,1.1,0.4,2.3,0.7,3.3c1.1,0.3,1.7,1.5,2.5,2.1c1.2-0.2,1.9-1.4,2.7-2.2c0.7-0.7,0.7-1.9,1.2-2.7
		c1.1-1.3,2.6-2.2,4.2-2.7c0.1-1.6,0.5-3.2,1.4-4.5c1-1,2.5-0.8,3.7-1.3c1.3-1,2.5-2.3,3-4c0.6,0.6,1.2,1.1,1.5,1.9
		c0.3,0.6,0.4,1.4,1,1.8c0.6,0.2,1.2,0.2,1.8,0.2c1.4,0,2.1,1.6,3.5,1.8c0.9,1.1,1.9,2.1,2.7,3.3c0.9-0.9,2.2-1.1,3.5-1
		c1,0.5,1.8,1.3,2.7,1.8c1.1,0.7,2,1.6,3.1,2.2c0.4,0,0.9-0.1,1.3-0.2c0.2-1.5,0.7-2.9,0.5-4.4c2.1-0.4,4.4-0.1,6.2-1.5
		c0.8-0.5,0.5-1.7,1.1-2.3c0.7-0.9,1.6-1.6,2.3-2.5c0.4-0.5,0.6-1.3,1.2-1.6C154.8,1.6,155.7,0.8,156.5,0 M157.4,0.4
		c0.7,0.3,1.5,0.5,2.3,0.7c0.8,1,2.2,0.7,3.3,0.8c0.8,0.1,1.7-0.7,2.4,0c0.8,0.9,2,1.9,1.5,3.3c1.1-0.1,2.2-0.2,3.3-0.2
		c0.5,0.5,0.9,0.9,1.4,1.3c-0.4,0.6-1,1.2-0.8,1.9c0.1,1,0.7,1.9,1.3,2.8c0.6,1,2,0.9,2.8,1.8c1.1,1.3,2.3,2.4,3.5,3.6
		c0.8,0.8,0,2-0.3,2.8c0.3,1,0.7,2,1.6,2.7c0.5,0.1,1,0.2,1.5,0.3c0.8,0.4,1.3,1.2,2.2,1.2c1.2,0.2,2.6-0.3,3.7,0.6
		c1.1,1.7,1.2,3.8,2,5.6c0.5,1,1.8,1.6,1.9,2.8c0.1,1.2,1.4,1.5,1.7,2.6c0.4,1.3,1.4,2.3,2.1,3.4c-0.5-0.4-1.1-0.7-1.5-1.1
		c-0.3-0.6-0.4-1.2-0.7-1.8c-0.4-0.5-1-0.9-1.3-1.4c-0.4-0.8-0.6-1.7-1.1-2.4c-0.5-0.8-1.2-1.3-1.9-1.9c0,0.9,0.1,1.9,0.1,2.8
		c-0.9-0.5-1.2-1.5-1.6-2.4c-0.6-0.4-1.5-0.2-2.2-0.6c-2-1.2-4.5-1.6-6.8-1.5c-1,0-2.2,0.2-3-0.5c-0.5-0.5-1.1-1-1.4-1.7
		c-0.3-1.5,0.1-3.3-0.8-4.6c0.2-1.1,0.1-2.4-0.8-3.2c-0.7-0.6-1.5-1.2-2.3-1.6c-0.9-0.4-1.8-0.3-2.8-0.4c-0.6-0.7-1.1-1.5-1.5-2.3
		c-0.1-1.2-0.1-2.5-0.4-3.6c-0.4-1.1,0.8-2.2,0.2-3.3c-0.3-0.8-0.7-1.7-1.5-2.2c-1.6-0.2-3.1,0.4-4.7,0.2c-0.6-0.2-0.4-0.9-0.4-1.4
		C158.6,2.3,157.8,1.3,157.4,0.4 M199.3,5.7c0.3,0.1,0.6,0.2,1,0.3c-0.7,0.5-1.1,1.1-1.4,1.9c0.1,0.2,0.3,0.6,0.4,0.8
		c0.3-0.5,0.8-1,1.3-1.3c0.2,0.7,0.4,1.4,0.8,2c0.6,0.3,1.3,0,2,0.2c1.1,0.3,2.4,0.3,3.4,0.9c0.3,1.1,0.5,2.1,0.9,3.2
		c0.2,1.1,1.5,1.5,1.8,2.6c0.6,1.8,2.2,2.8,3.5,4.1c0.2-0.1,0.5-0.1,0.8-0.2c2,1.7,3.8,3.7,5.5,5.7c-0.7-0.1-1.4-0.1-2-0.2
		c-0.7-1.4-1.7-2.6-3.1-3.3c-1.2-0.4-2.6-0.1-3.8-0.6c-1.1-0.5-2.3-0.8-3.5-1c-0.8-0.4-1.1-1.3-1.7-2c-0.6-0.7-1.6-0.9-1.9-1.7
		c-0.3-1.1-0.1-2.2-0.4-3.2c-0.4-0.5-1-0.6-1.5-1.1c-0.5-0.5-1.1-1-1.6-1.5c-0.4-0.7,0.2-1.6-0.2-2.3c-1.5,0.3-2.4,1.7-2.8,3
		c-0.8,0.1-1.5,0.6-2.1,1.2c-0.2,0-0.4-0.1-0.6-0.1c-0.7,0.3-1.4,0.5-2.1,0.7c-0.1,0.1-0.3,0.4-0.4,0.5c-0.6,0-1.3-0.1-1.8,0.4
		c-0.7,0.5-0.1,1.6-0.7,2.1c-0.5,0.5-1,1.1-1.8,1.2c-0.8,0.2-1.5,0.7-2.3,0.4c-0.5,0.4-1.1,0.7-1.5,1.2c-0.2,0.7-0.1,1.5-0.6,2.1
		c-0.3-0.3-0.7-0.6-1-0.9c-0.3-0.6,0-1.3,0-1.9c0.8-0.8,2.1-0.9,2.9-1.6c0.8-0.6,1.9-0.9,2.6-1.7c0.6-0.6,0.7-1.6,1.5-2.2
		c0.6-0.5,1.2-1,1.8-1.3c0.6-0.1,1.3,0,1.9-0.1c1.3-0.6,2.2-1.7,2.6-3.1c1.2-0.9,2.4-1.8,3.7-2.6C198.9,6.3,199,6,199.3,5.7
		 M89.6,11.3c1-1,2-2,3.3-2.6c-0.5,1.2-1.4,2.1-2.5,2.9c0.1,0.5,0,1.1-0.5,1.5c-1.8,1.7-3.5,3.4-5.5,5c-1.4,1.2-3.1,1.7-4.7,2.5
		c0.7-1.5,2.2-2.4,3.4-3.5c1.3-0.8,1.8-2.3,3-3.2C87.3,12.9,88.6,12.3,89.6,11.3 M177.2,30c1.1-0.1-0.1,1.3-0.3,0.3
		C177,30.2,177.2,30.1,177.2,30 M178.9,30.3c0.3,0,0.8-0.1,1.1-0.2c0.5,0.8,0.9,1.6,1.8,1.9c1,0.3,1.2,1.7,2.3,1.8
		c0.9,0.1,1.9,0.1,2.8,0.4c0,0.6,0,1.1,0.1,1.7c0.6,0.5,1.3,0.9,1.8,1.5c0.3,1,0.3,2,0.8,2.9c0.6,1.2,1.5,2.2,2.6,3.1
		c2.7,1.2,6.1,1.3,8.1,3.7c0.1-0.2,0.3-0.5,0.4-0.7c0.7,0.7,1.3,1.5,1.9,2.2c-1-0.4-1.9-1-2.8-1.5c-1.5-0.8-3.3-1.2-5-1.3
		c0.6,1.2,2.1,1.2,3.2,1.6c1.8,0.4,2.4,2.5,4.1,3.2c0.3-0.4,0.5-0.8,0.8-1.1c0.1,0.6,0.1,1.7-0.9,1.5c-1.3-0.6-2.5-1.5-3.5-2.6
		c-0.8,0.1-1.6-0.1-2.2-0.7c-2.2,0.1-4.3-0.3-6.4-0.9c-1.3,0.1-2.1-0.8-3.2-1.2c-0.3-0.9-0.9-1.6-1.3-2.5c-0.9-1.5-0.4-3.3-0.3-4.9
		c-0.9-1-2.1-1.8-3.5-2c0-0.5,0-0.9-0.1-1.4c-1.2-1.1-2.3-2.4-3.2-3.8c0.9,0.3,1.8,0.8,2.6,1.2C180.8,31.3,179.8,30.7,178.9,30.3
		 M174.4,31.7c0.3-0.4,0.6-0.9,1-1.3c0.1,0.4,0.2,0.7,0.3,1.1C175.3,31.5,174.8,31.6,174.4,31.7 M188.7,33.4c1.3,1.8,3,3.4,3.8,5.5
		c0.3,0.8,1.3,1.4,1.1,2.4c-0.4-1.2-2-1.8-1.7-3.2c-1.1-0.8-1.5-2.4-3-2.6C188.8,34.9,188.8,34.1,188.7,33.4 M122.6,36.4
		c1.1-0.3,2.6-0.6,3.3,0.4c1.1,1.4,2.4,2.5,3.7,3.6c0,0.5-0.2,1.1,0.1,1.6c0.5,0.6,1.4,1,1.6,1.8c0.2,1,0.8,1.8,1.2,2.8
		c0.4,0.9,0.9,1.9,1.7,2.4c0.8,0.5,1.6,1.1,2.4,1.6c0.9,0.6,2,0.6,2.8,1.4c1,1,2.2,1.9,3.1,3.1c0.3,0.9,0,1.9,0.1,2.8
		c0.2,0.7,0.7,1.2,0.7,1.9c0.1,1.4,0,2.8,0,4.1c-1.7,0.3-4,0.6-4.9-1.3c-0.6,0.1-1.3,0.1-1.6,0.7c-0.8,1.1-2.2,1.8-2.1,3.3
		c-0.4,0.3-0.8,0.6-1.2,0.8c0.2-0.6,0.3-1.4,0-2c-0.5-0.9,0.3-2.3-0.7-3c-0.4-0.5-1-0.4-1.5-0.3c-0.8-1-2.6-1.7-2.2-3.2
		c0.5-1.2,1-2.4,1.7-3.5c-0.4-0.5-0.8-1.3-1.5-1.2c-1.7-0.2-2.7,1.3-3.8,2.3c-0.3-0.7-0.6-1.3-0.5-2c0.2-1.3-0.7-2.5-0.6-3.9
		c-0.5-0.8-1-1.5-1.3-2.3c-0.4,0.2-0.8,0.5-1.2,0.7c0-1.2,0.3-2.4,0.6-3.5c0.3-0.9-0.6-1.5-1.1-2c0.3-1.8,0.8-3.6,1.4-5.3
		C123.1,37.7,122.8,37,122.6,36.4 M118.9,41.2c1-0.8,1-2.4,2.2-3c-0.5,0.8-1,1.7-0.9,2.7c-1,1-1.7,2.2-2.7,3.2
		c-0.6,0.6-0.7,1.6-1.5,2.1c-1,0.5-1.7,1.5-2.8,1.8c-0.7,0.2-1.2,0.7-1.7,1.2c0.1,0.2,0.2,0.7,0.3,0.9c-0.5,0.6-1,1.4-1.8,1.5
		c-1.3,0.2-2.7-0.1-4,0.4c-1,0.4-2.2,0.6-3.2,1.1c-1,0.7-1.7,2-3.1,1.8c0.7-0.7,1.5-1.4,2.2-2.2c0.6-0.7,1.5-0.9,2.2-1.4
		c1.7-1.6,4.4-0.3,6-2c0-0.3-0.1-0.7-0.1-1c0.2-0.3,0.3-0.5,0.5-0.8c0.4,0,0.7,0.1,1.1,0.1c0.3-0.2,0.6-0.5,0.9-0.7
		c0.3,0.1,0.5,0.2,0.8,0.4c1.2-1.2,2.2-2.5,3.7-3.4C117.6,42.9,118,41.9,118.9,41.2 M183.3,47.6c0.2-1,1.4-0.4,1.7,0.3
		c-0.2,0.1-0.5,0.3-0.6,0.4C184,48.1,183.7,47.9,183.3,47.6 M148.1,50.3c0.1-0.4,0-0.9,0.4-1.2c0.3,1.6-0.4,3.1-0.4,4.7
		c0.1,0.4-0.2,0.8-0.5,1c-0.2-0.6-0.3-1.2-0.4-1.8C147.3,51.9,148,51.2,148.1,50.3 M182.6,49.1c0.6,0.3,1.1,0.7,1.6,1.2
		c0.4-0.2,0.8-0.4,1.1-0.7c0,1,0.4,2,0.7,3C184.6,51.8,183.7,50.3,182.6,49.1 M190.3,50.8c0.5,0.4,1,0.8,1.6,1
		c0.6,0.1,1.3-0.2,1.9,0.1c0.7,0.3,1.2,0.8,1.8,1.2c-0.9,0.4-2,0.7-3,0.3C191.5,52.9,190.8,51.8,190.3,50.8 M215.5,53.2
		c0.5-0.1,1-0.2,1.5-0.3c0,0.5-0.1,1-0.1,1.5c-0.4-0.2-0.9-0.4-1.3-0.6C215.6,53.6,215.6,53.3,215.5,53.2 M113.3,53.7
		c0.5-0.1,0.9-0.3,1.4-0.4c0.4,0.4,0.8,1.1,1.4,1.1c0.5-0.1,1-0.5,1.5-0.7c-0.9,1.5-2.8,1.1-4.1,0.6
		C113.5,54.1,113.4,53.9,113.3,53.7 M97.7,56.3c0.6-0.5,1.2-1,1.8-1.5C99.2,55.6,98.7,56.3,97.7,56.3"/>
</g>
</svg>
