<?xml version="1.0" encoding="utf-8"?>
<!-- Generator: Adobe Illustrator 22.1.0, SVG Export Plug-In . SVG Version: 6.00 Build 0)  -->
<svg version="1.1" id="katman_1" xmlns="http://www.w3.org/2000/svg" xmlns:xlink="http://www.w3.org/1999/xlink" x="0px" y="0px"
	 viewBox="0 0 231.5 55.7" style="enable-background:new 0 0 231.5 55.7;" xml:space="preserve">
<style type="text/css">
	.st0{fill:#179FE6;}
	.st1{fill:#534D48;}
</style>
<g>
	<path class="st0" d="M1.5,51.9L0,50.8L17.5,33V17.3h9.6v6.2L45.4,3.2l36.8,28.7l-0.5,3.4c0,0-14.9-5.8-22.5-11.5s-11.9-9-11.9-9
		s-7.5,9-21,19.6S1.5,51.9,1.5,51.9z"/>
	<path class="st1" d="M19.2,0c0,0,3.8,2,3.8,4.5s-3.6,2.9-3.6,5.9s3.2,4.7,3.2,4.7s-0.6-2.7,0.8-4.1c1.3-1.3,5.4-3.6,5.4-6.2
		S19.2,0,19.2,0z"/>
	<path class="st1" d="M52.9,36.1h-3.6c-0.6,0-1-0.5-1-1v-4.7c0-0.6,0.5-1,1-1h3.6c0.6,0,1,0.5,1,1v4.7C54,35.6,53.5,36.1,52.9,36.1z
		"/>
	<path class="st1" d="M52.9,44.1h-3.6c-0.6,0-1-0.5-1-1v-4.7c0-0.6,0.5-1,1-1h3.6c0.6,0,1,0.5,1,1V43C54,43.6,53.5,44.1,52.9,44.1z"
		/>
	<path class="st1" d="M45.6,36.1H42c-0.6,0-1-0.5-1-1v-4.7c0-0.6,0.5-1,1-1h3.6c0.6,0,1,0.5,1,1v4.7C46.6,35.6,46.2,36.1,45.6,36.1z
		"/>
	<path class="st1" d="M45.6,44.1H42c-0.6,0-1-0.5-1-1v-4.7c0-0.6,0.5-1,1-1h3.6c0.6,0,1,0.5,1,1V43C46.6,43.6,46.2,44.1,45.6,44.1z"
		/>
	<path class="st1" d="M20.8,49.7c0,0,9.7-2.6,20.7-2.6s17.8,3.4,29.1,3.4s19.5-4.1,19.5-4.1s-6.6,9.5-20.2,9.5s-18.6-3.6-31.4-5.4
		S20.8,49.7,20.8,49.7z"/>
	<g>
		<path class="st1" d="M123,33.8v-9.2c-0.7,0.1-1.6,0.2-2.7,0.3c-1,0.1-2.1,0.1-2.9,0.2V26l1,0.2c0.8,0.2,0.9,0.4,0.9,1.7v6.8
			c-0.6,0.6-1.3,0.8-2.1,0.8c-1,0-2-0.7-2-2.5v-4.1c0-1.6,0-3.1,0.1-4.2c-0.8,0.1-1.9,0.2-2.9,0.3c-1,0.1-1.8,0.1-2.5,0.2V26
			l0.7,0.2c0.7,0.2,0.9,0.4,0.9,1.7v5.7c0,2.6,1.4,4.1,3.8,4.1c0.9,0,1.6-0.3,2.5-0.8c0.6-0.4,1-0.7,1.5-1.1v1.7l0.3,0.2
			c0.9-0.2,1.8-0.4,2.8-0.6c0.9-0.2,1.7-0.3,2.5-0.4v-0.9l-0.6,0C123.1,35.6,123,35.3,123,33.8z"/>
		<path class="st1" d="M134.1,24.5c-1,0-2.2,1.2-3.3,3h-0.1v-3c-1.9,0.5-3.6,0.9-5.2,1v0.8c1.3,0.3,1.6,0.4,1.6,1.8v6.2
			c0,1.7-0.3,1.9-1.9,2.1v0.9h8v-0.9c-2.3-0.2-2.4-0.3-2.4-2.1v-5.2c0.5-1.1,1.1-1.6,1.6-1.6c0.5,0,0.9,0.2,1.4,0.6
			c0.2,0.2,0.5,0.3,0.9,0.1c0.8-0.3,1.4-1.1,1.4-2.1C136.1,25.3,135.3,24.5,134.1,24.5z"/>
		<path class="st1" d="M148.7,35.1c-0.3,0.1-0.7,0.3-1,0.3c-0.4,0-0.9-0.3-0.9-1.7v-4.5c0-1.6-0.3-2.9-1.6-3.9
			c-0.8-0.6-1.6-0.8-2.8-0.8c-1.6,0.3-3.7,1.3-4.8,2c-0.6,0.5-1,0.8-1,1.4c0,0.7,1,1.4,1.7,1.4c0.6,0,1-0.2,1.2-1
			c0.3-0.9,0.5-1.6,0.9-2c0.3-0.3,0.6-0.5,0.9-0.5c1.1,0,1.8,1,1.8,2.9v0.7c-0.7,0.6-2.8,1.2-4.6,1.9c-1.5,0.5-2.2,1.2-2.2,2.7
			c0,1.7,1.5,3.6,3.9,3.6c0.5,0,1.9-0.9,3-1.6c0.1,0.3,0.3,0.7,0.7,1.1c0.4,0.3,1,0.6,1.8,0.6L149,36L148.7,35.1z M143.2,35.1
			c-0.5,0.4-0.9,0.5-1.2,0.5c-0.7,0-1.7-0.6-1.7-2.2c0-1,0.5-1.5,1.4-1.9c0.6-0.3,1.1-0.6,1.6-0.9V35.1z"/>
		<path class="st1" d="M154.2,34.2V17.4c-1.6,0.4-3.8,0.8-5.4,1v0.9c1.6,0.2,1.7,0.3,1.7,2v12.9c0,1.8-0.2,1.9-1.9,2.2v0.9h7.5v-0.9
			C154.4,36.2,154.2,36.1,154.2,34.2z"/>
		<path class="st1" d="M176.6,35.2c-0.7,0.7-1.8,0.9-3.2,0.9c-1.1,0-2.2,0-2.7-0.3c-0.6-0.3-0.7-1-0.7-2.3v-4.8h2
			c2.4,0,2.9,0.1,3.2,2.2h1V25h-1c-0.4,2-0.8,2.2-3.2,2.2h-2v-6c0-0.9,0.1-1,1.2-1h1.5c1.5,0,2.3,0.2,2.8,0.7c0.5,0.5,1,1.5,1.2,2.5
			l1-0.1c-0.1-1.8-0.3-3.8-0.3-4.3h-13.7v1c2.1,0.2,2.4,0.3,2.4,2.8v10.8c0,2.4-0.3,2.6-2.8,2.8v1h14.9c0.2-0.9,0.8-3.5,1-4.8
			l-1-0.2C177.7,33.6,177.1,34.5,176.6,35.2z"/>
		<path class="st1" d="M185.5,29.3c-1.5-0.6-2.2-1.3-2.2-2.2c0-0.9,0.7-1.5,1.5-1.5c1.4,0,2.3,1.2,3.1,2.9l0.9-0.3
			c0-0.6-0.4-2.6-0.7-3.3c-0.6-0.3-1.4-0.5-2.8-0.5c-3,0-4.8,1.8-4.8,4c0,2.5,2.4,3.6,3.7,4.2c1.8,0.8,2.2,1.5,2.2,2.3
			c0,0.9-0.7,1.5-1.6,1.5c-1.8,0-3.1-2-3.8-3.8l-0.9,0c0,1.5,0.3,3.5,0.4,3.9c0.6,0.4,2.1,1,3.6,1c2.5,0,5.2-1.4,5.2-4.2
			C189.4,31.3,187.8,30.3,185.5,29.3z"/>
		<path class="st1" d="M196.9,35.6c-0.5,0-1.6-0.2-1.6-2.4v-6.9h2.6c0.4-0.3,0.5-1.1,0.2-1.4h-2.8v-4.2l-0.4-0.2l-3.3,2.3v2.1h-1.2
			l-0.8,1l0.2,0.4h1.8v7.8c0,2.6,1.3,3.6,3.6,3.6c0.2,0,0.6-0.1,1.1-0.3l2.3-1.1l-0.3-1C197.8,35.5,197.3,35.6,196.9,35.6z"/>
		<path class="st1" d="M210.2,35.4c-0.4,0-0.9-0.3-0.9-1.7v-4.5c0-1.6-0.3-2.9-1.6-3.9c-0.8-0.6-1.6-0.8-2.8-0.8
			c-1.6,0.3-3.7,1.3-4.8,2c-0.6,0.5-1,0.8-1,1.4c0,0.7,1,1.4,1.7,1.4c0.6,0,1-0.2,1.2-1c0.3-0.9,0.5-1.6,0.9-2
			c0.3-0.3,0.6-0.5,0.9-0.5c1.1,0,1.8,1,1.8,2.9v0.7c-0.7,0.6-2.8,1.2-4.6,1.9c-1.5,0.5-2.2,1.2-2.2,2.7c0,1.7,1.5,3.6,3.9,3.6
			c0.5,0,1.9-0.9,3-1.6c0.1,0.3,0.3,0.7,0.7,1.1c0.4,0.3,1,0.6,1.8,0.6l3.1-1.6l-0.3-0.9C210.9,35.2,210.5,35.4,210.2,35.4z
			 M205.7,35.1c-0.5,0.4-0.9,0.5-1.2,0.5c-0.7,0-1.7-0.6-1.7-2.2c0-1,0.5-1.5,1.4-1.9c0.6-0.3,1.1-0.6,1.6-0.9V35.1z"/>
		<path class="st1" d="M218.1,35.6c-0.5,0-1.6-0.2-1.6-2.4v-6.9h2.6c0.4-0.3,0.5-1.1,0.2-1.4h-2.8v-4.2l-0.4-0.2l-3.3,2.3v2.1h-1.2
			l-0.8,1l0.2,0.4h1.8v7.8c0,2.6,1.3,3.6,3.6,3.6c0.2,0,0.6-0.1,1.1-0.3l2.3-1.1l-0.3-1C219,35.5,218.5,35.6,218.1,35.6z"/>
		<path class="st1" d="M227.3,35.1c-2.1,0-3.7-1.5-3.9-4.5c2.8-0.1,6.3-0.4,6.9-0.5c0.6-0.1,0.8-0.5,0.9-1c0-2.3-2.1-4.5-4.7-4.5h0
			c-1.5,0-3.1,0.7-4.4,2c-1.3,1.2-2.1,3-2.1,5.1c0,3.3,2.1,6.1,6,6.1c1.2,0,3.5-0.6,5.2-3.2l-0.5-0.7
			C229.5,34.7,228.4,35.1,227.3,35.1z M225.8,25.6L225.8,25.6c1.1,0,1.8,1.4,1.8,2.9c0,0.4-0.2,0.5-0.6,0.5
			c-1.2,0.1-2.3,0.1-3.5,0.1C223.7,26.9,224.7,25.6,225.8,25.6z"/>
		<path class="st1" d="M108.7,40.6c-2.1-0.5-5.7-2.7-6.8-3.4c0.5-0.1,0.9-0.3,1-0.3c3.2-1.3,5.9-4.5,5.9-9c0-5.6-4.5-9.4-9.9-9.4
			c-6.8,0-10.5,4.7-10.5,9.8c0,2.3,0.9,4.7,2.6,6.5c1.6,1.7,4.2,2.7,6.1,2.9c0.7,0.2,1.1,0.5,3.2,1.8c2.7,1.7,3.6,3.7,7,4.2
			s6.7-2.7,6.7-2.7v-0.9C113.9,40.1,111.3,41.2,108.7,40.6z M98.3,19.6c3.6,0,6.1,3.5,6.1,9.1c0,4.7-1.9,7-3.3,7.5
			c-0.8,0.4-1,0.5-1.7,0.5c-0.8,0-1.5-0.3-1.5-0.3c-3.2-0.9-5-4.4-5-8.8C92.8,23.2,94.9,19.6,98.3,19.6z"/>
	</g>
	<g>
		<path class="st1" d="M120.6,41.7l0.8,4.2h0l0.8-4.2h0.7l-1.2,4.8h-0.7l-0.8-4.2l0,0l-0.8,4.2h-0.7l-1.2-4.8h0.7l0.9,4.2h0l0.8-4.2
			H120.6z"/>
		<path class="st1" d="M128.7,41.7l0.8,4.2h0l0.8-4.2h0.7l-1.2,4.8h-0.7l-0.8-4.2l0,0l-0.8,4.2h-0.7l-1.2-4.8h0.7l0.9,4.2h0l0.8-4.2
			H128.7z"/>
		<path class="st1" d="M136.7,41.7l0.8,4.2h0l0.8-4.2h0.7l-1.2,4.8h-0.7l-0.8-4.2l0,0l-0.8,4.2h-0.7l-1.2-4.8h0.7l0.9,4.2h0l0.8-4.2
			H136.7z"/>
		<path class="st1" d="M143,46.5h-0.8v-0.9h0.8V46.5z"/>
		<path class="st1" d="M149,42.2v-0.5h0.7v6.4h-0.7V46c-0.3,0.4-0.6,0.7-1,0.7c-0.6,0-1-0.3-1.2-0.9c-0.1-0.4-0.2-0.9-0.3-1.6
			c0-0.7,0.1-1.2,0.3-1.7c0.3-0.6,0.6-0.9,1.2-0.9C148.3,41.6,148.7,41.8,149,42.2L149,42.2z M147.1,44.3c0,1.2,0.3,1.8,0.9,1.8
			c0.4,0,0.7-0.2,0.8-0.7c0.1-0.3,0.1-0.7,0.1-1.2c0-0.5,0-1-0.1-1.2c-0.1-0.5-0.4-0.7-0.8-0.7c-0.4,0-0.7,0.3-0.8,0.8
			C147.1,43.3,147.1,43.7,147.1,44.3z"/>
		<path class="st1" d="M155.5,46.5v-0.6c-0.2,0.5-0.6,0.8-1.2,0.8c-0.8,0-1.2-0.4-1.2-1.2v-3.7h0.7v3.7c0,0.4,0.2,0.6,0.6,0.6
			c0.7,0,1-0.4,1-1.3v-3.1h0.7v4.8H155.5z"/>
		<path class="st1" d="M160.5,41.7v0.8c0.3-0.6,0.8-0.9,1.4-0.8v0.7c-0.1,0-0.2,0-0.3,0c-0.4,0-0.6,0.1-0.8,0.4
			c-0.2,0.2-0.3,0.6-0.3,0.9v2.9h-0.7v-4.8H160.5z"/>
		<path class="st1" d="M167.9,46v0.5c-0.1,0-0.1,0-0.2,0c-0.3,0-0.5,0-0.6-0.1c-0.1-0.1-0.2-0.3-0.2-0.6h0c-0.1,0.2-0.2,0.4-0.4,0.5
			c-0.2,0.2-0.4,0.2-0.7,0.2c-0.5,0-0.8-0.1-1-0.4c-0.2-0.2-0.3-0.6-0.3-1c0-0.6,0.2-1,0.7-1.2c0.3-0.1,0.8-0.3,1.4-0.6
			c0.1-0.1,0.1-0.3,0.1-0.6c0-0.3-0.1-0.5-0.2-0.6c-0.1-0.1-0.3-0.2-0.6-0.2c-0.3,0-0.5,0.1-0.6,0.2c-0.1,0.1-0.1,0.3-0.1,0.6h-0.6
			c0-1,0.4-1.4,1.4-1.4c0.9,0,1.3,0.4,1.3,1.3v2.8c0,0.2,0,0.3,0.1,0.4C167.6,46,167.7,46,167.9,46z M166.7,45.1v-1.2
			c-0.1,0-0.4,0.2-1.1,0.5c-0.3,0.1-0.4,0.4-0.4,0.8c0,0.3,0,0.5,0.1,0.6c0.1,0.1,0.3,0.2,0.5,0.2c0.3,0,0.5-0.1,0.6-0.3
			C166.7,45.6,166.7,45.3,166.7,45.1z"/>
		<path class="st1" d="M171.7,46.5H171V40h0.7V46.5z"/>
		<path class="st1" d="M177.3,44.9h0.6c0,0.5-0.1,0.9-0.3,1.2c-0.3,0.3-0.6,0.5-1.1,0.5c-1,0-1.6-0.8-1.6-2.5c0-0.7,0.1-1.2,0.3-1.6
			c0.3-0.6,0.7-0.9,1.3-0.9c0.7,0,1.1,0.3,1.3,0.9c0.1,0.3,0.2,0.8,0.2,1.7h-2.3c0,0.7,0,1.1,0.1,1.2c0.1,0.5,0.4,0.7,0.8,0.7
			c0.3,0,0.5-0.1,0.7-0.4C177.3,45.5,177.3,45.2,177.3,44.9z M175.6,43.6h1.6c0-0.5-0.1-0.8-0.1-0.9c-0.1-0.3-0.3-0.5-0.7-0.5
			c-0.4,0-0.6,0.2-0.7,0.5C175.7,42.8,175.6,43.1,175.6,43.6z"/>
		<path class="st1" d="M183.9,43h-0.7c0-0.6-0.2-0.8-0.8-0.8c-0.5,0-0.8,0.2-0.8,0.7c0,0.3,0.1,0.5,0.3,0.6c0,0,0.2,0.1,0.7,0.3
			c0.5,0.2,0.8,0.4,1,0.5c0.3,0.2,0.4,0.5,0.4,0.9c0,0.5-0.2,0.8-0.5,1.1s-0.7,0.4-1.2,0.4c-1,0-1.5-0.5-1.5-1.5h0.6
			c0,0.6,0.2,1,0.8,1c0.6,0,0.9-0.3,0.9-0.8c0-0.3-0.1-0.5-0.4-0.7l-0.8-0.3c-0.4-0.2-0.7-0.3-0.9-0.5c-0.2-0.2-0.3-0.5-0.3-0.9
			c0-0.4,0.1-0.7,0.4-1c0.3-0.2,0.6-0.4,1-0.4C183.4,41.6,183.9,42,183.9,43z"/>
		<path class="st1" d="M188.2,40.4v1.3h0.8v0.6h-0.8v3.3c0,0.1,0,0.2,0,0.3c0,0.1,0.1,0.1,0.3,0.1h0.5v0.6h-0.8
			c-0.3,0-0.5-0.1-0.6-0.2c-0.1-0.1-0.1-0.3-0.1-0.6v-3.5h-0.7v-0.6h0.7v-1.3H188.2z"/>
		<path class="st1" d="M195,46v0.5c-0.1,0-0.1,0-0.2,0c-0.3,0-0.5,0-0.6-0.1c-0.1-0.1-0.2-0.3-0.2-0.6h0c-0.1,0.2-0.2,0.4-0.4,0.5
			c-0.2,0.2-0.4,0.2-0.7,0.2c-0.5,0-0.8-0.1-1-0.4c-0.2-0.2-0.3-0.6-0.3-1c0-0.6,0.2-1,0.7-1.2c0.3-0.1,0.8-0.3,1.4-0.6
			c0.1-0.1,0.1-0.3,0.1-0.6c0-0.3-0.1-0.5-0.2-0.6c-0.1-0.1-0.3-0.2-0.6-0.2c-0.3,0-0.5,0.1-0.6,0.2c-0.1,0.1-0.1,0.3-0.1,0.6h-0.6
			c0-1,0.4-1.4,1.4-1.4c0.9,0,1.3,0.4,1.3,1.3v2.8c0,0.2,0,0.3,0.1,0.4C194.8,46,194.9,46,195,46z M193.9,45.1v-1.2
			c-0.1,0-0.4,0.2-1.1,0.5c-0.3,0.1-0.4,0.4-0.4,0.8c0,0.3,0,0.5,0.1,0.6c0.1,0.1,0.3,0.2,0.5,0.2c0.3,0,0.5-0.1,0.6-0.3
			C193.8,45.6,193.9,45.3,193.9,45.1z"/>
		<path class="st1" d="M198.9,40.4v1.3h0.8v0.6h-0.8v3.3c0,0.1,0,0.2,0,0.3c0,0.1,0.1,0.1,0.3,0.1h0.5v0.6H199
			c-0.3,0-0.5-0.1-0.6-0.2c-0.1-0.1-0.1-0.3-0.1-0.6v-3.5h-0.7v-0.6h0.7v-1.3H198.9z"/>
		<path class="st1" d="M204.9,44.9h0.6c0,0.5-0.1,0.9-0.3,1.2c-0.3,0.3-0.6,0.5-1.1,0.5c-1,0-1.6-0.8-1.6-2.5c0-0.7,0.1-1.2,0.3-1.6
			c0.3-0.6,0.7-0.9,1.3-0.9c0.7,0,1.1,0.3,1.3,0.9c0.1,0.3,0.2,0.8,0.2,1.7h-2.3c0,0.7,0,1.1,0.1,1.2c0.1,0.5,0.4,0.7,0.8,0.7
			c0.3,0,0.5-0.1,0.7-0.4C204.9,45.5,204.9,45.2,204.9,44.9z M203.3,43.6h1.6c0-0.5-0.1-0.8-0.1-0.9c-0.1-0.3-0.3-0.5-0.7-0.5
			c-0.4,0-0.6,0.2-0.7,0.5C203.3,42.8,203.3,43.1,203.3,43.6z"/>
		<path class="st1" d="M209.8,46.5H209v-0.9h0.8V46.5z"/>
		<path class="st1" d="M214.7,42.1c-0.4,0-0.7,0.3-0.8,0.8c-0.1,0.3-0.1,0.7-0.1,1.3c0,1.2,0.3,1.8,0.9,1.8c0.3,0,0.6-0.1,0.7-0.4
			c0.1-0.2,0.1-0.4,0.2-0.8h0.7c0,1.2-0.5,1.8-1.4,1.8c-0.7,0-1.1-0.3-1.4-0.8c-0.2-0.4-0.3-0.9-0.3-1.7c0-0.8,0.1-1.3,0.3-1.7
			c0.3-0.6,0.7-0.9,1.4-0.9c0.5,0,0.8,0.2,1.1,0.5c0.2,0.3,0.4,0.7,0.3,1.2h-0.6C215.5,42.5,215.3,42.1,214.7,42.1z"/>
		<path class="st1" d="M222.7,43.9c0,0.8-0.1,1.4-0.3,1.8c-0.3,0.6-0.8,0.9-1.4,0.9c-0.7,0-1.2-0.3-1.4-0.9c-0.2-0.4-0.3-1-0.3-1.8
			c0-1.6,0.6-2.4,1.7-2.4S222.7,42.3,222.7,43.9z M222,44.1c0-0.6,0-1-0.1-1.3c-0.2-0.5-0.4-0.7-0.9-0.7c-0.4,0-0.7,0.2-0.9,0.7
			c-0.1,0.3-0.1,0.7-0.1,1.3c0,1.3,0.3,1.9,1,1.9c0.4,0,0.7-0.2,0.9-0.7C221.9,45.1,222,44.7,222,44.1z"/>
		<path class="st1" d="M226.7,43.3v3.2H226v-4.8h0.7v0.6c0.3-0.5,0.7-0.7,1.2-0.7c0.5,0,0.9,0.3,1.1,0.8c0.3-0.5,0.8-0.8,1.3-0.8
			c0.3,0,0.6,0.1,0.9,0.3c0.2,0.2,0.3,0.6,0.3,1.1v3.5h-0.7V43c0-0.3,0-0.5-0.1-0.6c-0.1-0.2-0.3-0.2-0.6-0.2
			c-0.3,0-0.5,0.1-0.7,0.4c-0.2,0.2-0.2,0.5-0.2,0.8v3.2h-0.7V43c0-0.6-0.2-0.8-0.7-0.8c-0.3,0-0.6,0.1-0.7,0.3
			C226.8,42.7,226.7,43,226.7,43.3z"/>
	</g>
</g>
</svg>
